<svg width="233" height="41" viewBox="0 0 233 41" fill="none" xmlns="http://www.w3.org/2000/svg">
<path d="M43.0162 15.341C42.8444 14.8172 42.529 14.3516 42.1054 13.9968C41.6819 13.642 41.1671 13.4122 40.6193 13.3333L29.2883 11.6943L24.2251 1.51022C23.2225 -0.503405 19.9091 -0.503405 18.9066 1.51022L13.8434 11.6943L2.53924 13.3333C1.99173 13.4134 1.47755 13.644 1.05463 13.9993C0.631715 14.3546 0.316859 14.8204 0.145532 15.3442C-0.0257875 15.8676 -0.0462887 16.4283 0.0863556 16.9627C0.219 17.4971 0.499477 17.9838 0.895956 18.3676L9.09464 26.3224L7.16056 37.5457C7.06748 38.0891 7.12866 38.6476 7.33722 39.1584C7.54578 39.6691 7.89344 40.1117 8.34103 40.4363C8.78989 40.759 9.32027 40.9507 9.87257 40.9899C10.4249 41.029 10.9772 40.914 11.4674 40.6578L21.5647 35.3576L31.6915 40.6578C32.1248 40.8853 32.5994 40.9976 33.0709 40.9976C33.6976 40.996 34.3083 40.8 34.8179 40.4368C35.2654 40.112 35.6129 39.6694 35.8214 39.1587C36.03 38.648 36.0913 38.0896 35.9984 37.5461L34.0675 26.3228L42.2662 18.368C42.663 17.9837 42.9436 17.4964 43.0762 16.9613C43.2087 16.4262 43.188 15.8649 43.0162 15.341ZM90.4758 15.341C90.3041 14.8172 89.9886 14.3516 89.5651 13.9968C89.1415 13.642 88.6268 13.4122 88.0789 13.3333L76.7479 11.6943L71.6847 1.51022C70.6822 -0.503405 67.3688 -0.503405 66.3662 1.51022L61.303 11.6943L49.9989 13.3333C49.4514 13.4134 48.9372 13.644 48.5143 13.9993C48.0914 14.3546 47.7765 14.8204 47.6052 15.3442C47.4339 15.8676 47.4134 16.4283 47.546 16.9627C47.6786 17.4971 47.9591 17.9838 48.3556 18.3676L56.5543 26.3224L54.6202 37.5457C54.5268 38.0891 54.5878 38.6478 54.7964 39.1585C55.005 39.6693 55.3528 40.1119 55.8007 40.4363C56.2495 40.7591 56.7799 40.9508 57.3322 40.9899C57.8845 41.0291 58.4368 40.9141 58.9271 40.6578L69.0243 35.3576L79.1512 40.6578C79.5844 40.8853 80.0591 40.9976 80.5305 40.9976C81.1573 40.996 81.768 40.8 82.2776 40.4368C82.725 40.112 83.0725 39.6694 83.2811 39.1587C83.4896 38.648 83.5509 38.0896 83.458 37.5461L81.5272 26.3228L89.7258 18.368C90.1226 17.9837 90.4033 17.4964 90.5358 16.9613C90.6684 16.4262 90.6476 15.8649 90.4758 15.341ZM137.935 15.341C137.764 14.8172 137.448 14.3516 137.025 13.9968C136.601 13.642 136.086 13.4122 135.539 13.3333L124.208 11.6943L119.144 1.51022C118.142 -0.503405 114.828 -0.503405 113.826 1.51022L108.763 11.6943L97.4585 13.3333C96.911 13.4134 96.3968 13.644 95.9739 13.9993C95.551 14.3546 95.2361 14.8204 95.0648 15.3442C94.8935 15.8676 94.873 16.4283 95.0056 16.9627C95.1383 17.4971 95.4188 17.9838 95.8152 18.3676L104.014 26.3224L102.08 37.5457C101.987 38.0891 102.048 38.6476 102.257 39.1584C102.465 39.6691 102.813 40.1117 103.26 40.4363C103.709 40.759 104.24 40.9507 104.792 40.9899C105.344 41.029 105.896 40.914 106.387 40.6578L116.484 35.3576L126.61 40.6578C127.044 40.8853 127.518 40.9976 127.99 40.9976C128.616 40.996 129.227 40.8 129.737 40.4368C130.184 40.112 130.532 39.6694 130.74 39.1587C130.949 38.648 131.01 38.0896 130.917 37.5461L128.986 26.3228L137.185 18.368C137.582 17.9838 137.863 17.4965 137.995 16.9614C138.128 16.4263 138.107 15.8649 137.935 15.341ZM185.395 15.341C185.223 14.8172 184.908 14.3516 184.484 13.9968C184.061 13.642 183.546 13.4122 182.998 13.3333L171.667 11.6943L166.604 1.51022C165.601 -0.503405 162.288 -0.503405 161.286 1.51022L156.222 11.6943L144.918 13.3333C144.371 13.4134 143.856 13.644 143.434 13.9993C143.011 14.3546 142.696 14.8204 142.524 15.3442C142.353 15.8676 142.333 16.4283 142.465 16.9627C142.598 17.4971 142.878 17.9838 143.275 18.3676L151.474 26.3224L149.539 37.5457C149.446 38.0891 149.508 38.6476 149.716 39.1584C149.925 39.6691 150.272 40.1117 150.72 40.4363C151.169 40.759 151.699 40.9507 152.252 40.9899C152.804 41.029 153.356 40.914 153.846 40.6578L163.943 35.3576L174.07 40.6578C174.503 40.8853 174.978 40.9976 175.449 40.9976C176.076 40.996 176.687 40.8 177.196 40.4368C177.644 40.112 177.991 39.6694 178.2 39.1587C178.408 38.648 178.47 38.0896 178.377 37.5461L176.446 26.3228L184.645 18.368C185.042 17.9837 185.322 17.4964 185.455 16.9614C185.587 16.4263 185.567 15.8649 185.395 15.341ZM232.855 15.341C232.683 14.8174 232.367 14.3521 231.944 13.9973C231.52 13.6426 231.006 13.4126 230.458 13.3333L219.127 11.6943L214.064 1.51022C213.061 -0.503405 209.748 -0.503405 208.745 1.51022L203.682 11.6943L192.378 13.3333C191.83 13.4134 191.316 13.644 190.893 13.9993C190.47 14.3546 190.155 14.8204 189.984 15.3442C189.813 15.8676 189.792 16.4283 189.925 16.9627C190.058 17.4971 190.338 17.9838 190.735 18.3676L198.933 26.3224L196.999 37.5457C196.906 38.0891 196.967 38.6476 197.176 39.1584C197.384 39.6691 197.732 40.1117 198.18 40.4363C198.686 40.8012 199.296 40.9975 199.921 40.9971C200.404 40.9969 200.88 40.8804 201.309 40.6574L211.406 35.3572L221.536 40.6574C222.025 40.9159 222.577 41.0321 223.13 40.9924C223.682 40.9527 224.212 40.7589 224.659 40.4331C225.106 40.1085 225.453 39.6662 225.661 39.156C225.869 38.6458 225.93 38.088 225.837 37.5452L223.906 26.3219L232.105 18.3671C232.501 17.9826 232.781 17.4954 232.914 16.9606C233.046 16.4259 233.026 15.8648 232.855 15.341Z" fill="#FF9800"/>
</svg>
