<svg width="415" height="3" viewBox="0 0 415 3" fill="none" xmlns="http://www.w3.org/2000/svg">
<path fill-rule="evenodd" clip-rule="evenodd" d="M2.18078 2.12338H0.679688V0.611328H2.18078V2.12338ZM8.18514 2.12338H5.18296V0.611328H8.18514V2.12338ZM14.1895 2.12338H11.1873V0.611328H14.1895V2.12338ZM20.1939 2.12338H17.1917V0.611328H20.1939V2.12338ZM26.1982 2.12338H23.1961V0.611328H26.1982V2.12338ZM32.2026 2.12338H29.2004V0.611328H32.2026V2.12338ZM38.207 2.12338H35.2048V0.611328H38.207V2.12338ZM44.2113 2.12338H41.2092V0.611328H44.2113V2.12338ZM50.2157 2.12338H47.2135V0.611328H50.2157V2.12338ZM56.2201 2.12338H53.2179V0.611328H56.2201V2.12338ZM62.2244 2.12338H59.2223V0.611328H62.2244V2.12338ZM68.2288 2.12338H65.2266V0.611328H68.2288V2.12338ZM74.2332 2.12338H71.231V0.611328H74.2332V2.12338ZM80.2375 2.12338H77.2354V0.611328H80.2375V2.12338ZM86.2419 2.12338H83.2397V0.611328H86.2419V2.12338ZM92.2463 2.12338H89.2441V0.611328H92.2463V2.12338ZM98.2506 2.12338H95.2485V0.611328H98.2506V2.12338ZM104.255 2.12338H101.253V0.611328H104.255V2.12338ZM110.259 2.12338H107.257V0.611328H110.259V2.12338ZM116.264 2.12338H113.262V0.611328H116.264V2.12338ZM122.268 2.12338H119.266V0.611328H122.268V2.12338ZM128.272 2.12338H125.27V0.611328H128.272V2.12338ZM134.277 2.12338H131.275V0.611328H134.277V2.12338ZM140.281 2.12338H137.279V0.611328H140.281V2.12338ZM146.285 2.12338H143.283V0.611328H146.285V2.12338ZM152.29 2.12338H149.288V0.611328H152.29V2.12338ZM158.294 2.12338H155.292V0.611328H158.294V2.12338ZM164.299 2.12338H161.296V0.611328H164.299V2.12338ZM170.303 2.12338H167.301V0.611328H170.303V2.12338ZM176.307 2.12338H173.305V0.611328H176.307V2.12338ZM182.312 2.12338H179.309V0.611328H182.312V2.12338ZM188.316 2.12338H185.314V0.611328H188.316V2.12338ZM194.32 2.12338H191.318V0.611328H194.32V2.12338ZM200.325 2.12338H197.323V0.611328H200.325V2.12338ZM206.329 2.12338H203.327V0.611328H206.329V2.12338ZM212.333 2.12338H209.331V0.611328H212.333V2.12338ZM218.338 2.12338H215.336V0.611328H218.338V2.12338ZM224.342 2.12338H221.34V0.611328H224.342V2.12338ZM230.346 2.12338H227.344V0.611328H230.346V2.12338ZM236.351 2.12338H233.349V0.611328H236.351V2.12338ZM242.355 2.12338H239.353V0.611328H242.355V2.12338ZM248.36 2.12338H245.357V0.611328H248.36V2.12338ZM254.364 2.12338H251.362V0.611328H254.364V2.12338ZM260.368 2.12338H257.366V0.611328H260.368V2.12338ZM266.373 2.12338H263.37V0.611328H266.373V2.12338ZM272.377 2.12338H269.375V0.611328H272.377V2.12338ZM278.381 2.12338H275.379V0.611328H278.381V2.12338ZM284.386 2.12338H281.384V0.611328H284.386V2.12338ZM290.39 2.12338H287.388V0.611328H290.39V2.12338ZM296.394 2.12338H293.392V0.611328H296.394V2.12338ZM302.399 2.12338H299.397V0.611328H302.399V2.12338ZM308.403 2.12338H305.401V0.611328H308.403V2.12338ZM314.407 2.12338H311.405V0.611328H314.407V2.12338ZM320.412 2.12338H317.41V0.611328H320.412V2.12338ZM326.416 2.12338H323.414V0.611328H326.416V2.12338ZM332.421 2.12338H329.418V0.611328H332.421V2.12338ZM338.425 2.12338H335.423V0.611328H338.425V2.12338ZM344.429 2.12338H341.427V0.611328H344.429V2.12338ZM350.434 2.12338H347.431V0.611328H350.434V2.12338ZM356.438 2.12338H353.436V0.611328H356.438V2.12338ZM362.442 2.12338H359.44V0.611328H362.442V2.12338ZM368.447 2.12338H365.445V0.611328H368.447V2.12338ZM374.451 2.12338H371.449V0.611328H374.451V2.12338ZM380.455 2.12338H377.453V0.611328H380.455V2.12338ZM386.46 2.12338H383.458V0.611328H386.46V2.12338ZM392.464 2.12338H389.462V0.611328H392.464V2.12338ZM398.468 2.12338H395.466V0.611328H398.468V2.12338ZM404.473 2.12338H401.471V0.611328H404.473V2.12338ZM410.477 2.12338H407.475V0.611328H410.477V2.12338ZM414.981 2.12338H413.479V0.611328H414.981V2.12338Z" fill="#E9E9E9"/>
</svg>
