<svg width="79" height="79" viewBox="0 0 79 79" fill="none" xmlns="http://www.w3.org/2000/svg">
<circle cx="39.5" cy="39.5" r="39.5" fill="#FEEFF1"/>
<g clip-path="url(#clip0_26_370)">
<path d="M56.8111 32.1316C56.8031 32.1231 56.7948 32.1148 56.7862 32.1067L49.5613 25.6853C49.4954 25.6252 49.4184 25.5786 49.3347 25.5479L44.1083 23.6799C44.0073 23.6432 43.8991 23.6308 43.7924 23.6435C43.6857 23.6563 43.5835 23.6939 43.494 23.7534C43.4044 23.8128 43.3301 23.8924 43.277 23.9858C43.2239 24.0792 43.1934 24.1838 43.188 24.2911C43.188 24.4422 42.9614 27.9242 39.4794 27.9791C35.9768 27.9242 35.7571 24.4422 35.7502 24.2911C35.7445 24.1846 35.7141 24.0809 35.6613 23.9882C35.6086 23.8955 35.535 23.8164 35.4463 23.7571C35.3577 23.6978 35.2565 23.6599 35.1507 23.6465C35.0449 23.6331 34.9374 23.6446 34.8368 23.6799L29.6172 25.5685C29.5335 25.5992 29.4565 25.6458 29.3906 25.7059L22.2138 32.1067C22.1462 32.1708 22.0924 32.2481 22.0557 32.3337C22.019 32.4193 22 32.5114 22 32.6046C22 32.6978 22.019 32.7899 22.0557 32.8755C22.0924 32.9611 22.1462 33.0384 22.2138 33.1025L27.9278 38.8783V54.6743C27.9278 54.8564 28.0001 55.0311 28.1289 55.1599C28.2577 55.2887 28.4324 55.361 28.6145 55.361H50.3855C50.5676 55.361 50.7423 55.2887 50.8711 55.1599C50.9999 55.0311 51.0722 54.8564 51.0722 54.6743V38.8783L56.7862 33.1025C56.8516 33.0404 56.9041 32.966 56.9408 32.8836C56.9774 32.8012 56.9975 32.7124 56.9998 32.6222C57.0021 32.532 56.9866 32.4423 56.9543 32.3581C56.9219 32.2739 56.8733 32.197 56.8111 32.1316ZM51.0516 36.921V33.7343C51.0516 33.5522 50.9793 33.3775 50.8505 33.2487C50.7217 33.1199 50.547 33.0476 50.3649 33.0476C50.1827 33.0476 50.008 33.1199 49.8792 33.2487C49.7504 33.3775 49.6781 33.5522 49.6781 33.7343V53.9531H29.2739V33.7343C29.2739 33.5522 29.2015 33.3775 29.0727 33.2487C28.9439 33.1199 28.7692 33.0476 28.5871 33.0476C28.4049 33.0476 28.2302 33.1199 28.1014 33.2487C27.9727 33.3775 27.9003 33.5522 27.9003 33.7343V36.9279L23.6766 32.6492L30.2147 26.7979L34.514 25.2458C35.0466 27.99 37.703 29.7829 40.4472 29.2503C42.4738 28.8569 44.0583 27.2724 44.4517 25.2458L48.7509 26.7979L55.2685 32.6492L51.0516 36.921Z" fill="#F43349"/>
</g>
<defs>
<clipPath id="clip0_26_370">
<rect width="35" height="35" fill="white" transform="translate(22 22)"/>
</clipPath>
</defs>
</svg>
