<svg width="53" height="53" viewBox="0 0 53 53" fill="none" xmlns="http://www.w3.org/2000/svg">
<g clip-path="url(#clip0_42_1255)">
<path d="M45.032 16.282L34.0263 27.2169L45.032 38.1518C45.231 37.7359 45.3517 37.2762 45.3517 36.7853V17.6485C45.3517 17.1575 45.231 16.6979 45.032 16.282ZM42.1622 14.459H12.252C11.761 14.459 11.3014 14.5797 10.8855 14.7786L24.952 28.7743C26.1958 30.018 28.2184 30.018 29.4621 28.7743L43.5286 14.7786C43.1128 14.5797 42.6531 14.459 42.1622 14.459ZM9.38216 16.282C9.1832 16.6979 9.0625 17.1575 9.0625 17.6485V36.7853C9.0625 37.2763 9.1832 37.736 9.38216 38.1518L20.3879 27.2169L9.38216 16.282Z" fill="#9E9E9E"/>
<path d="M32.5241 28.7202L30.9667 30.2776C28.8943 32.35 25.5222 32.35 23.4498 30.2776L21.8925 28.7202L10.8867 39.6551C11.3026 39.854 11.7622 39.9747 12.2532 39.9747H42.1634C42.6543 39.9747 43.114 39.854 43.5298 39.6551L32.5241 28.7202Z" fill="#9E9E9E"/>
</g>
<path fill-rule="evenodd" clip-rule="evenodd" d="M46.8657 1.51205H6.04038C3.53514 1.51205 1.50424 3.54295 1.50424 6.04819V46.8735C1.50424 49.3787 3.53514 51.4096 6.04038 51.4096H46.8657C49.3709 51.4096 51.4018 49.3787 51.4018 46.8735V6.04819C51.4018 3.54295 49.3709 1.51205 46.8657 1.51205ZM6.04038 0C2.70006 0 -0.0078125 2.70787 -0.0078125 6.04819V46.8735C-0.0078125 50.2138 2.70006 52.9217 6.04038 52.9217H46.8657C50.206 52.9217 52.9139 50.2138 52.9139 46.8735V6.04819C52.9139 2.70787 50.206 0 46.8657 0H6.04038Z" fill="#F1F1F1"/>
<defs>
<clipPath id="clip0_42_1255">
<rect width="36.2892" height="36.2892" fill="white" transform="translate(9.0625 9.07227)"/>
</clipPath>
</defs>
</svg>
