<svg width="53" height="53" viewBox="0 0 53 53" fill="none" xmlns="http://www.w3.org/2000/svg">
<path d="M27.2435 38H14.4718C13.6587 38 13 37.4068 13 36.6753V15.3246C13 14.5929 13.6588 14 14.4718 14H38.195C39.0078 14 39.6667 14.5929 39.6667 15.3246V36.6753C39.6667 37.4069 39.0076 38 38.195 38H31.3996V28.7059H34.8658L35.3849 25.0838H31.3996V22.7713C31.3996 21.7226 31.7232 21.008 33.394 21.008L35.5252 21.0072V17.7675C35.1566 17.7234 33.8915 17.6248 32.4198 17.6248C29.3471 17.6248 27.2435 19.3128 27.2435 22.4126V25.0838H23.7684V28.7059H27.2435V38Z" fill="#F42A3E"/>
<path fill-rule="evenodd" clip-rule="evenodd" d="M46.8735 1.51205H6.04819C3.54295 1.51205 1.51205 3.54295 1.51205 6.04819V46.8735C1.51205 49.3787 3.54295 51.4096 6.04819 51.4096H46.8735C49.3787 51.4096 51.4096 49.3787 51.4096 46.8735V6.04819C51.4096 3.54295 49.3787 1.51205 46.8735 1.51205ZM6.04819 0C2.70787 0 0 2.70787 0 6.04819V46.8735C0 50.2138 2.70787 52.9217 6.04819 52.9217H46.8735C50.2138 52.9217 52.9217 50.2138 52.9217 46.8735V6.04819C52.9217 2.70787 50.2138 0 46.8735 0H6.04819Z" fill="url(#paint0_linear_261_231)"/>
<defs>
<linearGradient id="paint0_linear_261_231" x1="2" y1="3" x2="51.5" y2="51.5" gradientUnits="userSpaceOnUse">
<stop stop-color="#F42A3E"/>
<stop offset="1" stop-color="#FF8C49"/>
</linearGradient>
</defs>
</svg>
