<svg width="24" height="24" viewBox="0 0 24 24" fill="none" xmlns="http://www.w3.org/2000/svg">
<path d="M18.755 0.0078125H8.49922C7.48142 0.00905297 6.50566 0.413923 5.78596 1.13362C5.06627 1.85331 4.6614 2.82907 4.66016 3.84687V6.21594C4.66016 6.51431 4.77868 6.80045 4.98966 7.01143C5.20064 7.22241 5.48679 7.34094 5.78516 7.34094C6.08352 7.34094 6.36967 7.22241 6.58065 7.01143C6.79163 6.80045 6.91016 6.51431 6.91016 6.21594V3.84687C6.91065 3.42558 7.07823 3.02169 7.37613 2.72379C7.67403 2.42589 8.07793 2.25831 8.49922 2.25781H18.755C19.176 2.25868 19.5795 2.42644 19.877 2.72431C20.1745 3.02218 20.3418 3.42587 20.3422 3.84687V20.1538C20.3418 20.575 20.1743 20.9789 19.8765 21.2768C19.5787 21.5747 19.1748 21.7423 18.7536 21.7428H8.49922C8.07793 21.7423 7.67403 21.5747 7.37613 21.2768C7.07823 20.9789 6.91065 20.575 6.91016 20.1538V17.413C6.91016 17.1146 6.79163 16.8285 6.58065 16.6175C6.36967 16.4065 6.08352 16.288 5.78516 16.288C5.48679 16.288 5.20064 16.4065 4.98966 16.6175C4.77868 16.8285 4.66016 17.1146 4.66016 17.413V20.1538C4.6614 21.1716 5.06627 22.1473 5.78596 22.867C6.50566 23.5867 7.48142 23.9916 8.49922 23.9928H18.755C19.7725 23.9911 20.7478 23.586 21.467 22.8663C22.1863 22.1467 22.5909 21.1712 22.5922 20.1538V3.84687C22.5909 2.8294 22.1863 1.85392 21.467 1.13428C20.7478 0.414638 19.7725 0.0095489 18.755 0.0078125Z" fill="black"/>
<path d="M17.0925 11.181L13.0894 7.18022C12.8811 6.97187 12.5994 6.85353 12.3048 6.85064C12.0102 6.84775 11.7262 6.96053 11.5139 7.16475C11.0592 7.60209 11.07 8.34272 11.5162 8.78897L13.6008 10.8749H2.53125C2.23288 10.8749 1.94673 10.9934 1.73575 11.2044C1.52478 11.4154 1.40625 11.7015 1.40625 11.9999C1.40625 12.2983 1.52478 12.5844 1.73575 12.7954C1.94673 13.0064 2.23288 13.1249 2.53125 13.1249H13.6012L11.4966 15.2296C11.2855 15.4406 11.1669 15.7267 11.1669 16.0251C11.1669 16.3235 11.2854 16.6097 11.4963 16.8208C11.7073 17.0318 11.9935 17.1504 12.2919 17.1504C12.5903 17.1505 12.8765 17.032 13.0875 16.821L17.0925 12.8174C17.2001 12.71 17.2854 12.5825 17.3437 12.4421C17.4019 12.3017 17.4319 12.1512 17.4319 11.9992C17.4319 11.8472 17.4019 11.6967 17.3437 11.5563C17.2854 11.4159 17.2001 11.2884 17.0925 11.181Z" fill="black"/>
</svg>
