<svg width="137" height="137" viewBox="0 0 137 137" fill="none" xmlns="http://www.w3.org/2000/svg">
<g clip-path="url(#clip0_15_124)">
<path d="M16.8057 1.22192C15.4338 2.13652 13.6046 2.36516 12.4613 3.50841C11.5467 4.19435 11.5467 5.56624 12.4613 6.25219C13.3759 6.70948 14.5192 6.25219 15.4338 6.02354C16.1197 5.79489 16.3484 5.33759 16.3484 4.65165C17.0343 4.19435 17.7202 3.73705 18.1775 3.05111C19.0921 2.13652 17.9489 0.307328 16.8057 1.22192ZM7.65972 14.7122C6.25224 15.891 4.95153 17.1917 3.7727 18.5992C2.62946 19.9711 1.25757 21.8003 1.25757 23.4008C1.25757 24.3154 2.40081 24.7727 2.8581 24.0868C4.00135 22.9435 4.22999 21.1143 5.14459 19.7424C6.05918 18.1419 7.20242 16.9987 8.57431 15.6268C9.03161 14.9408 8.11702 14.2549 7.65972 14.7122ZM2.17216 35.2905C1.71486 33.4613 1.48621 31.4035 1.48621 29.3457C1.48621 28.6597 0.342972 28.6597 0.342972 29.3457C0.342972 32.0895 -1.02892 37.577 1.71486 39.4062C2.17216 39.8635 2.8581 39.1776 2.8581 38.7203C2.8581 37.577 2.40081 36.4338 2.17216 35.2905ZM14.9765 43.9792C11.3181 44.4365 8.11702 45.1224 4.68729 43.2932C4.22999 43.0646 4.00135 43.5219 4.45864 43.7505C7.88837 46.2656 11.7754 47.4089 15.6624 45.3511C16.577 44.8938 15.6624 43.7505 14.9765 43.9792ZM31.4391 32.0895C29.61 32.7754 28.2381 34.1473 26.6375 35.2905C24.8083 36.6624 23.2078 38.0343 21.6073 39.6348C21.15 40.0921 21.8359 41.0067 22.5219 40.5494C23.8938 39.1776 25.4943 38.263 27.0948 37.1197C28.6954 35.9765 30.7532 35.0619 32.1251 33.69C32.811 33.004 32.3537 31.6322 31.4391 32.0895ZM46.7586 15.6268C42.6429 17.2273 38.7559 21.1143 35.7835 24.3154C35.3262 25.0014 36.0121 25.6873 36.6981 25.23C38.5272 23.6295 40.5851 22.0289 42.6429 20.657C44.2435 19.5138 46.0726 18.5992 47.4445 17.2273C48.1305 16.3127 47.4445 15.3981 46.7586 15.6268ZM67.1083 7.16678C62.9926 6.93813 58.877 8.53867 55.2186 9.91056C54.5326 10.1392 54.7613 11.0538 55.4472 11.0538C59.3343 9.91056 63.2213 9.45326 67.1083 9.22462C68.2515 8.99597 68.2515 7.16678 67.1083 7.16678ZM82.4277 14.7122C81.2845 13.3403 79.684 11.9684 78.3121 10.8252C77.1688 9.91056 75.7969 11.2824 76.7115 12.4257C77.8551 13.5689 78.998 14.9408 80.1413 16.3127C81.2849 17.6846 82.4277 19.7424 84.0283 20.8857C84.7142 21.343 85.6288 20.657 85.4002 19.7424C85.4002 17.9133 83.7996 16.0841 82.4277 14.7122ZM86.7721 27.0592C86.7721 26.1446 85.1719 26.1446 85.1719 27.0592C84.9432 29.3457 84.4859 31.4035 84.0283 33.69C83.571 35.7478 82.4277 37.8057 82.4277 40.0921C82.4277 41.2354 84.0283 41.6927 84.4859 40.5494C86.5438 36.6624 87.0007 31.1749 86.7721 27.0592ZM76.9402 50.1527L73.5101 54.9543C72.5959 56.5548 70.9953 58.1554 70.7663 59.9845C70.7663 60.8991 71.6809 61.1278 72.3668 60.8991C73.9674 60.2132 74.6533 58.1554 75.3393 56.7835C76.4825 54.9543 77.3971 52.8965 78.5403 51.0673C78.998 49.924 77.6261 49.2381 76.9402 50.1527ZM65.5078 66.844C63.4499 68.6732 61.8494 70.5024 60.4775 72.5602C59.1056 74.618 57.2764 77.5905 57.7337 80.1056C57.9624 81.2488 59.1056 81.4775 59.7915 80.5629C60.9348 78.9624 61.1634 76.6759 61.8494 74.8467C62.764 72.1029 64.3645 69.5878 66.1937 67.3013C66.651 67.0727 65.965 66.3867 65.5078 66.844ZM52.4748 89.2515C50.417 91.0807 48.8164 93.1386 47.4445 95.6537C46.0726 98.1688 44.4721 101.37 44.9294 104.114C45.1581 105.029 46.5299 105.029 46.7586 104.343C48.1305 102.285 48.1305 99.5407 49.0451 97.2542C49.9597 94.7395 51.5602 92.224 53.3894 89.9375C53.8467 89.4802 53.1607 88.5656 52.4748 89.2515ZM52.2462 124.234C50.6456 123.32 49.2737 122.634 48.1305 121.262C46.9872 119.433 46.5299 116.689 46.5299 114.632C46.5299 113.945 45.3867 113.945 45.3867 114.632C44.9294 118.976 45.844 126.521 51.7889 126.293C52.7034 126.064 53.1607 124.692 52.2462 124.234ZM76.4829 132.237C73.9681 132.009 71.4526 132.466 68.9379 132.466C65.7364 132.237 62.764 131.322 60.2488 129.493C59.7915 129.265 59.5629 129.951 59.7915 130.179C64.5932 133.838 71.2243 137.039 77.1692 134.524C78.3121 133.838 77.6261 132.237 76.4829 132.237ZM95.918 116.689C94.3175 117.604 92.9456 118.976 91.1164 120.119C89.5158 121.034 87.6863 121.491 85.8575 121.72C84.7138 121.948 84.7138 123.549 85.8575 123.549C89.9731 123.777 95.232 122.406 97.5185 118.519C98.4335 117.375 97.0612 116.232 95.918 116.689ZM105.293 102.97C102.32 105.942 99.1194 109.144 97.0612 112.802C96.3753 113.946 97.9758 114.631 98.6618 113.717C101.177 110.515 105.293 108.229 107.122 104.342C107.35 103.199 106.207 102.056 105.293 102.97ZM122.442 103.199C121.756 101.827 119.926 100.913 118.555 100.227C116.954 99.5407 115.125 99.3124 113.296 99.3124C112.152 99.3124 112.152 100.913 113.296 100.913C114.896 100.913 116.268 101.37 117.64 102.056C118.784 102.742 119.698 103.885 120.841 104.571C121.756 105.257 122.898 104.114 122.442 103.199Z" fill="#FF8C49"/>
<path d="M136.161 112.116C132.96 106.858 130.902 100.913 128.158 95.4251C126.786 92.91 123.128 95.1965 124.271 97.7116C126.329 102.284 128.158 107.086 130.902 111.43C128.844 111.659 126.786 111.888 124.5 112.116C123.585 112.345 121.985 112.345 121.299 113.26L121.07 113.488C121.07 113.488 120.842 113.488 120.842 113.717C120.384 114.174 120.842 115.089 121.299 115.089C121.528 115.318 121.757 115.318 122.214 115.318C123.357 115.546 124.5 115.318 125.872 115.318C128.844 115.089 131.588 114.86 134.561 115.089C135.932 115.318 136.847 113.488 136.161 112.116Z" fill="#F4293E"/>
</g>
<defs>
<clipPath id="clip0_15_124">
<rect width="136.393" height="136.393" fill="white"/>
</clipPath>
</defs>
</svg>
