<svg width="54" height="53" viewBox="0 0 54 53" fill="none" xmlns="http://www.w3.org/2000/svg">
<path d="M41.4866 17.6789C40.3776 16.2218 38.8111 15.1798 37.0386 14.7203C35.2661 14.2608 33.3906 14.4104 31.7134 15.145C30.2122 15.7929 28.8733 16.8851 27.7875 18.3345C26.7016 16.8815 25.3628 15.7893 23.8616 15.145C22.1843 14.4104 20.3088 14.2608 18.5364 14.7203C16.7639 15.1798 15.1973 16.2218 14.0883 17.6789C12.9188 19.2113 12.3008 21.1264 12.3008 23.2165C12.3008 26.2246 14.0947 29.5246 17.6322 33.0288C20.5147 35.883 23.9211 38.2205 25.6945 39.3595C26.3193 39.7594 27.0456 39.972 27.7875 39.972C28.5293 39.972 29.2556 39.7594 29.8805 39.3595C31.6524 38.2205 35.0602 35.883 37.9428 33.0288C41.4802 29.526 43.2741 26.2246 43.2741 23.2165C43.2741 21.1264 42.6561 19.2113 41.4866 17.6789Z" fill="#9E9E9E"/>
<path fill-rule="evenodd" clip-rule="evenodd" d="M47.4438 1.51205H6.61851C4.11326 1.51205 2.08236 3.54295 2.08236 6.04819V46.8735C2.08236 49.3787 4.11326 51.4096 6.61851 51.4096H47.4438C49.9491 51.4096 51.98 49.3787 51.98 46.8735V6.04819C51.98 3.54295 49.9491 1.51205 47.4438 1.51205ZM6.61851 0C3.27818 0 0.570312 2.70787 0.570312 6.04819V46.8735C0.570312 50.2138 3.27818 52.9217 6.61851 52.9217H47.4438C50.7841 52.9217 53.492 50.2138 53.492 46.8735V6.04819C53.492 2.70787 50.7841 0 47.4438 0H6.61851Z" fill="#F1F1F1"/>
</svg>
