<svg width="27" height="26" viewBox="0 0 27 26" fill="none" xmlns="http://www.w3.org/2000/svg">
<path d="M12.668 4.32031C9.4203 4.32031 6.77734 7.04197 6.77734 10.3882C6.77734 15.1427 12.1143 20.0519 12.3414 20.258C12.4312 20.3402 12.5474 20.3857 12.6679 20.3858C12.7884 20.3859 12.9047 20.3407 12.9946 20.2587C13.2218 20.0519 18.5587 15.1427 18.5587 10.3882C18.5587 7.04197 15.9158 4.32031 12.668 4.32031ZM12.668 13.6915C10.8635 13.6915 9.39543 12.1901 9.39543 10.3446C9.39543 8.49919 10.8635 6.99779 12.668 6.99779C14.4725 6.99779 15.9406 8.49919 15.9406 10.3446C15.9406 12.1901 14.4725 13.6915 12.668 13.6915Z" fill="#F42A3E"/>
</svg>
