<svg width="612" height="401" viewBox="0 0 612 401" fill="none" xmlns="http://www.w3.org/2000/svg">
<path d="M601.33 94.5399L591.76 140.88L585.6 134.88L575.12 142.35L567.11 132.41L549.15 145.47L533.8 119.8L516.68 129.83L509.89 120.46L488.15 132.71L481.61 118.71L496.85 44.8999L578.55 61.7699L601.33 94.5399Z" fill="#EBEBEB"/>
<path d="M578.55 61.77L601.33 94.54L572.99 88.69L578.55 61.77Z" fill="#DBDBDB"/>
<path d="M589.72 150.15L575.69 218.14L465.64 195.43L479.57 127.97L486.11 141.98L507.86 129.73L514.64 139.09L531.77 129.06L547.11 154.73L565.08 141.67L573.08 151.61L583.57 144.14L589.72 150.15Z" fill="#EBEBEB"/>
<path d="M432.21 142.18L320.06 149.12L311.15 5.15L394.43 0L425 25.64L432.21 142.18Z" fill="#EBEBEB"/>
<path d="M394.43 0L425 25.64L396.12 27.43L394.43 0Z" fill="#DBDBDB"/>
<path d="M363.38 96.8699L362.94 93.6199C361.81 86.8899 363.65 79.3599 369.5 71.4899C374.78 64.4899 377.64 59.4899 377.32 53.8099C376.96 47.4099 372.71 43.3699 364.8 43.6899C360.28 43.9247 355.938 45.529 352.35 48.2899L348.9 40.5599C352.9 37.3099 359.9 34.9099 366.55 34.5599C380.98 33.7599 388 42.2999 388.55 51.8299C389.03 60.3599 384.61 66.7699 378.99 74.2599C373.83 81.0899 372.14 86.7199 372.87 93.0899L373.18 96.3499L363.38 96.8699ZM361.6 114.58C361.34 109.94 364.29 106.5 368.68 106.26C373.07 106.02 376.27 109.1 376.53 113.75C376.77 118.14 374.08 121.68 369.44 121.94C365.01 122.19 361.81 118.97 361.56 114.58H361.6Z" fill="#DBDBDB"/>
<path d="M82.8599 72.38L71.5799 67.27L70.0099 70.72C69.7781 71.2131 69.4163 71.6337 68.9636 71.9367C68.5108 72.2397 67.9841 72.4137 67.4399 72.44C66.82 72.4603 66.2021 72.5205 65.5899 72.62C65.0525 72.6998 64.5035 72.6322 64.0016 72.4244C63.4997 72.2166 63.0636 71.8763 62.7399 71.44L60.5299 68.35L50.4599 75.57L52.6699 78.66C52.9773 79.106 53.1582 79.6269 53.1934 80.1674C53.2286 80.708 53.1168 81.2479 52.8699 81.73C52.5848 82.28 52.3278 82.844 52.0999 83.42C51.9018 83.9279 51.569 84.3723 51.1374 84.7053C50.7057 85.0383 50.1914 85.2473 49.6499 85.31L45.8799 85.68L47.0899 98.01L50.8799 97.63C51.4234 97.5866 51.9685 97.6921 52.4566 97.9353C52.9446 98.1784 53.3572 98.55 53.6499 99.01C53.8099 99.27 53.9799 99.52 54.1599 99.77C54.3399 100.02 54.5199 100.26 54.7099 100.5C55.055 100.92 55.2769 101.427 55.351 101.966C55.4252 102.504 55.3486 103.052 55.1299 103.55L53.5499 107.03L64.8399 112.15L66.4099 108.68C66.6439 108.187 67.0077 107.768 67.4623 107.467C67.9169 107.165 68.445 106.994 68.9899 106.97C69.6028 106.945 70.2138 106.885 70.8199 106.79C71.3573 106.71 71.9062 106.778 72.4082 106.986C72.9101 107.193 73.3462 107.534 73.6699 107.97L75.8799 111.06L85.9599 103.84L83.7499 100.75C83.433 100.308 83.2464 99.7862 83.211 99.2436C83.1757 98.701 83.2931 98.1593 83.5499 97.68C83.8284 97.1332 84.0788 96.5725 84.2999 96C84.4922 95.4884 84.8233 95.0405 85.2561 94.7066C85.6889 94.3728 86.2062 94.1662 86.7499 94.11L90.5399 93.73L89.3199 81.4L85.5299 81.77C84.9897 81.8175 84.447 81.7146 83.9617 81.4728C83.4764 81.231 83.0673 80.8598 82.7799 80.4C82.6099 80.14 82.4399 79.89 82.2599 79.64C82.0799 79.39 81.8999 79.14 81.7099 78.91C81.3671 78.485 81.1469 77.9744 81.0728 77.4334C80.9988 76.8924 81.0739 76.3415 81.2899 75.84L82.8599 72.38ZM76.4599 83.79C77.6293 85.4219 78.2885 87.3639 78.3541 89.3705C78.4197 91.377 77.8888 93.3579 76.8285 95.0627C75.7683 96.7675 74.2262 98.1196 72.3975 98.9479C70.5687 99.7763 68.5354 100.044 66.5546 99.7164C64.5739 99.3891 62.7347 98.4817 61.2697 97.109C59.8046 95.7364 58.7796 93.9601 58.3242 92.0048C57.8687 90.0495 58.0033 88.0031 58.711 86.1243C59.4187 84.2456 60.6676 82.6189 62.2999 81.45C64.4881 79.883 67.209 79.2492 69.8644 79.688C72.5198 80.1268 74.8922 81.6023 76.4599 83.79Z" fill="#EBEBEB"/>
<path d="M592.76 235.98L585.24 240.32L586.57 242.62C586.768 242.95 586.867 243.33 586.855 243.715C586.843 244.1 586.719 244.473 586.5 244.79C586.27 245.15 586.05 245.52 585.85 245.91C585.686 246.255 585.426 246.546 585.102 246.748C584.777 246.95 584.402 247.055 584.02 247.05H581.38V255.74H584.04C584.422 255.735 584.797 255.84 585.122 256.042C585.446 256.244 585.706 256.535 585.87 256.88C586.07 257.27 586.29 257.64 586.52 258C586.739 258.317 586.863 258.69 586.875 259.075C586.887 259.46 586.788 259.84 586.59 260.17L585.26 262.47L592.78 266.81L594.12 264.5C594.314 264.172 594.595 263.905 594.933 263.729C595.27 263.552 595.65 263.473 596.03 263.5H597.31C597.69 263.474 598.069 263.554 598.406 263.73C598.743 263.907 599.025 264.173 599.22 264.5L600.56 266.82L608.07 262.48L606.74 260.17C606.551 259.838 606.458 259.46 606.472 259.079C606.486 258.697 606.607 258.327 606.82 258.01C607.05 257.65 607.27 257.27 607.47 256.89C607.634 256.545 607.894 256.254 608.218 256.052C608.542 255.85 608.918 255.745 609.3 255.75H611.96V247.06H609.28C608.898 247.065 608.522 246.96 608.198 246.758C607.874 246.556 607.614 246.265 607.45 245.92C607.25 245.54 607.03 245.16 606.8 244.8C606.587 244.483 606.466 244.113 606.452 243.731C606.438 243.35 606.531 242.972 606.72 242.64L608.05 240.33L600.54 235.99L599.2 238.27C599.006 238.598 598.724 238.865 598.387 239.041C598.05 239.218 597.67 239.297 597.29 239.27H596.65H596.01C595.629 239.296 595.248 239.216 594.91 239.039C594.571 238.863 594.287 238.597 594.09 238.27L592.76 235.98ZM596.65 244.28C598.059 244.278 599.437 244.694 600.609 245.476C601.782 246.257 602.696 247.369 603.236 248.671C603.776 249.972 603.918 251.404 603.644 252.787C603.369 254.169 602.691 255.438 601.694 256.435C600.698 257.431 599.429 258.109 598.046 258.384C596.664 258.658 595.232 258.516 593.931 257.976C592.629 257.436 591.517 256.522 590.736 255.349C589.954 254.177 589.538 252.799 589.54 251.39C589.539 250.455 589.722 249.53 590.078 248.666C590.435 247.802 590.958 247.017 591.619 246.356C592.279 245.695 593.063 245.17 593.927 244.812C594.79 244.454 595.715 244.27 596.65 244.27V244.28Z" fill="#EBEBEB"/>
<path d="M105.68 35.43L98.7903 40.71L100.38 42.82C100.617 43.1206 100.763 43.4831 100.801 43.8642C100.838 44.2453 100.765 44.6291 100.59 44.97C100.399 45.3592 100.232 45.76 100.09 46.17C99.967 46.5311 99.7454 46.8507 99.4504 47.0928C99.1553 47.3348 98.7986 47.4897 98.4203 47.54L95.7803 47.88L96.9003 56.49L99.5403 56.15C99.9246 56.0964 100.316 56.1525 100.67 56.3117C101.024 56.4709 101.326 56.7268 101.54 57.05C101.781 57.3979 102.042 57.7317 102.32 58.05C102.578 58.3333 102.749 58.6846 102.813 59.0622C102.876 59.4398 102.83 59.8277 102.68 60.18L101.68 62.64L109.68 65.97L110.68 63.51C110.829 63.1571 111.074 62.8529 111.387 62.632C111.699 62.4111 112.068 62.2822 112.45 62.26L113.09 62.19L113.72 62.09C114.09 62.0202 114.472 62.0533 114.825 62.1855C115.178 62.3177 115.487 62.5441 115.72 62.84L117.35 64.97L124.24 59.69L122.63 57.58C122.398 57.2752 122.255 56.9115 122.218 56.5299C122.181 56.1483 122.251 55.7639 122.42 55.42C122.61 55.0333 122.777 54.636 122.92 54.23C123.044 53.8688 123.265 53.5492 123.56 53.3072C123.855 53.0651 124.212 52.9103 124.59 52.86L127.23 52.52L126.11 43.91L123.47 44.25C123.087 44.3046 122.696 44.25 122.342 44.0926C121.989 43.9352 121.686 43.6813 121.47 43.36C121.22 43 120.96 42.66 120.68 42.36C120.447 42.0706 120.297 41.7238 120.244 41.3561C120.191 40.9884 120.238 40.6132 120.38 40.27L121.38 37.81L113.38 34.48L112.38 36.94C112.23 37.2915 111.984 37.5944 111.672 37.8151C111.359 38.0357 110.992 38.1655 110.61 38.19L109.97 38.25L109.38 38.27C109.01 38.3397 108.628 38.3067 108.275 38.1745C107.923 38.0422 107.613 37.8159 107.38 37.52L105.68 35.43ZM110.61 43.16C112.003 42.9809 113.418 43.2184 114.676 43.8425C115.934 44.4666 116.98 45.4493 117.68 46.6667C118.38 47.8841 118.704 49.2816 118.611 50.683C118.518 52.0843 118.012 53.4267 117.157 54.5409C116.302 55.655 115.136 56.4909 113.806 56.9432C112.477 57.3955 111.043 57.4438 109.686 57.0822C108.329 56.7205 107.109 55.9651 106.181 54.9111C105.253 53.8571 104.658 52.5519 104.47 51.16C104.345 50.2311 104.405 49.2867 104.647 48.3811C104.888 47.4755 105.306 46.6265 105.877 45.883C106.447 45.1396 107.159 44.5162 107.972 44.0489C108.784 43.5816 109.681 43.2795 110.61 43.16Z" fill="#EBEBEB"/>
<path d="M54.2004 261.05C54.5761 251.383 54.4426 241.703 53.8004 232.05C52.3696 212.117 49.3297 192.333 44.7104 172.89C42.1704 161.95 39.0504 151.19 35.7904 140.44C35.6904 140.11 35.1704 140.2 35.2604 140.54C45.3304 178.44 53.5904 217.54 53.0204 256.94C52.8604 267.94 51.5804 278.79 50.5404 289.75C50.5404 290.04 50.9904 290.16 51.0604 289.86C53.1304 280.45 53.8104 270.63 54.2004 261.05Z" fill="#EBEBEB"/>
<path d="M35.26 140.51C35.26 140.51 20.02 179.21 23.43 188.27C26.84 197.33 33.88 199.27 33.88 199.27C33.88 199.27 24.55 212.59 31.07 225.08C37.59 237.57 52.07 236.98 53.07 251.14C53.04 251.21 53.84 192 35.26 140.51Z" fill="#EBEBEB"/>
<path d="M51.3795 226.76C51.4042 226.695 51.4042 226.624 51.3795 226.56C49.3793 200.139 44.4217 174.026 36.5995 148.71C36.5995 148.64 36.4495 148.66 36.4695 148.71C39.4895 160.043 42.1562 171.423 44.4695 182.85C42.4207 180.909 39.9176 179.513 37.1895 178.79C37.1895 178.79 37.1095 178.85 37.1895 178.87C40.0555 179.92 42.6323 181.633 44.7095 183.87C45.1495 186.12 45.5895 188.36 45.9995 190.61C42.5895 186.8 37.8695 184.91 33.1395 183.11C33.1288 183.115 33.1197 183.122 33.1133 183.132C33.1069 183.142 33.1035 183.153 33.1035 183.165C33.1035 183.177 33.1069 183.188 33.1133 183.198C33.1197 183.207 33.1288 183.215 33.1395 183.22C38.0695 185.22 42.9695 187.8 46.3095 192.05C47.4695 198.47 48.4895 204.913 49.3695 211.38C46.9074 208.8 43.7498 206.991 40.2795 206.17C40.1695 206.17 40.1095 206.3 40.2195 206.33C43.7843 207.38 46.9669 209.443 49.3795 212.27H49.4395C49.7395 214.537 50.0262 216.813 50.2995 219.1C48.3948 217.488 46.2443 216.192 43.9295 215.26C43.8695 215.26 43.8295 215.33 43.9295 215.35C46.2917 216.373 48.4548 217.805 50.3195 219.58C50.3195 219.58 50.3695 219.58 50.3995 219.58C50.6495 221.75 50.8995 223.92 51.1195 226.09C47.6857 221.939 43.2292 218.754 38.1895 216.85C38.1683 216.85 38.148 216.858 38.133 216.873C38.118 216.888 38.1095 216.909 38.1095 216.93C38.1095 216.951 38.118 216.971 38.133 216.986C38.148 217.001 38.1683 217.01 38.1895 217.01C43.1659 219.203 47.5372 222.569 50.9295 226.82C50.9669 226.866 51.0173 226.901 51.0743 226.919C51.1313 226.937 51.1923 226.937 51.2495 226.92C51.5795 230.25 51.8795 233.58 52.1195 236.92C52.1195 236.97 52.1995 236.97 52.1995 236.92C51.9395 233.567 51.6662 230.18 51.3795 226.76Z" fill="white"/>
<path d="M39.1302 174.98C36.3701 173.262 33.2172 172.278 29.9702 172.12C29.9542 172.12 29.939 172.126 29.9277 172.138C29.9165 172.149 29.9102 172.164 29.9102 172.18C29.9102 172.196 29.9165 172.211 29.9277 172.223C29.939 172.234 29.9542 172.24 29.9702 172.24C33.1094 172.835 36.156 173.844 39.0302 175.24C39.1502 175.27 39.2402 175.06 39.1302 174.98Z" fill="white"/>
<path d="M40.9799 215.95C38.8586 214.733 36.5228 213.935 34.0999 213.6C34.0199 213.6 34.0099 213.71 34.0999 213.73C36.4659 214.205 38.7544 215.006 40.8999 216.11C40.9899 216.16 41.0699 216 40.9799 215.95Z" fill="white"/>
<path d="M94.2803 188.94C87.8332 193.397 81.912 198.57 76.6303 204.36C71.1833 210.491 66.9818 217.624 64.2603 225.36C58.4682 241.478 55.3537 258.436 55.0403 275.56C54.846 285.043 55.7555 294.517 57.7503 303.79C57.7665 303.857 57.808 303.916 57.8661 303.954C57.9243 303.991 57.9948 304.005 58.0629 303.992C58.131 303.98 58.1916 303.941 58.2321 303.885C58.2725 303.828 58.2898 303.759 58.2803 303.69C55.7981 287.326 55.8925 270.675 58.5603 254.34C61.1803 238.34 65.2903 220.92 75.4703 207.91C81.0103 200.82 87.9203 195.25 94.7503 189.49C95.1103 189.17 94.6503 188.68 94.2803 188.94Z" fill="#EBEBEB"/>
<path d="M57.2803 264.02C60.9501 258.084 65.2628 252.571 70.1403 247.58C77.7703 239.95 84.1903 234.53 85.1903 229.49C86.1903 224.45 77.5503 220.73 77.5503 220.73C77.5503 220.73 88.1003 222.63 90.9903 218.2C93.8803 213.77 95.2703 188.11 95.2703 188.11C95.2703 188.11 76.0703 201.82 67.1203 221.04C58.1703 240.26 57.2803 264.02 57.2803 264.02Z" fill="#EBEBEB"/>
<path d="M88.38 212.18C87.1157 211.992 85.8341 211.948 84.56 212.05C84.41 212.05 84.42 212.31 84.56 212.32C85.82 212.32 87.09 212.26 88.35 212.32C88.3644 212.316 88.3774 212.309 88.3877 212.298C88.398 212.287 88.4052 212.274 88.4083 212.259C88.4114 212.245 88.4104 212.23 88.4054 212.216C88.4004 212.202 88.3916 212.189 88.38 212.18Z" fill="white"/>
<path d="M74.5899 237.07C72.5625 237.111 70.5583 237.511 68.6699 238.25C68.6699 238.25 68.6699 238.35 68.6699 238.34C70.6699 237.87 72.5999 237.68 74.5799 237.34C74.6058 237.329 74.6279 237.31 74.6438 237.287C74.6597 237.264 74.6686 237.236 74.6697 237.208C74.6707 237.18 74.6638 237.152 74.6497 237.127C74.6356 237.103 74.6149 237.083 74.5899 237.07Z" fill="white"/>
<path d="M70.4499 228.47C69.6081 228.463 68.7676 228.537 67.9398 228.69C67.9245 228.696 67.9113 228.706 67.902 228.719C67.8927 228.733 67.8877 228.749 67.8877 228.765C67.8877 228.781 67.8927 228.797 67.902 228.811C67.9113 228.824 67.9245 228.834 67.9398 228.84C68.7781 228.889 69.6191 228.852 70.4499 228.73C70.4843 228.73 70.5174 228.716 70.5418 228.692C70.5662 228.668 70.5798 228.635 70.5798 228.6C70.5798 228.566 70.5662 228.533 70.5418 228.508C70.5174 228.484 70.4843 228.47 70.4499 228.47Z" fill="white"/>
<path d="M0.989772 216.16C7.23897 218.279 13.2273 221.1 18.8398 224.57C24.6632 228.271 29.7132 233.066 33.7098 238.69C42.1187 250.395 48.557 263.397 52.7698 277.18C55.1193 284.812 56.5691 292.692 57.0898 300.66C57.0788 300.712 57.0505 300.758 57.0096 300.791C56.9686 300.824 56.9175 300.843 56.8648 300.843C56.8121 300.843 56.7609 300.824 56.72 300.791C56.679 300.758 56.6507 300.712 56.6398 300.66C54.8746 286.844 50.9536 273.391 45.0198 260.79C39.1898 248.44 31.8398 235.3 20.5998 227.12C14.4798 222.67 7.59977 219.75 0.739772 216.67C0.379772 216.55 0.629772 216.04 0.989772 216.16Z" fill="#EBEBEB"/>
<path d="M48.29 268.37C43.9455 264.417 39.1803 260.953 34.08 258.04C26.14 253.63 19.69 250.73 17.72 246.88C15.75 243.03 21.88 238.03 21.88 238.03C21.88 238.03 13.78 242.03 10.42 239.08C7.06 236.13 0 215.73 0 215.73C0 215.73 18.71 222.38 30.38 235.87C42.05 249.36 48.29 268.37 48.29 268.37Z" fill="#EBEBEB"/>
<path d="M32.7603 249.59C30.9208 249.462 29.0738 249.689 27.3203 250.26C27.3203 250.26 27.3203 250.35 27.3203 250.34C29.1092 250.033 30.9165 249.846 32.7303 249.78C32.8603 249.78 32.8903 249.6 32.7603 249.59Z" fill="white"/>
<path d="M16.4398 228.19C15.6007 228.122 14.7562 228.169 13.9298 228.33C13.8398 228.33 13.8698 228.49 13.9298 228.48C14.7598 228.39 15.5698 228.42 16.3898 228.4C16.4153 228.401 16.4403 228.393 16.4607 228.378C16.481 228.363 16.4953 228.341 16.5012 228.316C16.5071 228.291 16.5042 228.265 16.493 228.242C16.4818 228.219 16.463 228.201 16.4398 228.19Z" fill="white"/>
<path d="M72.4204 326.45H30.1904L36.2104 282.34L37.7504 271.03H64.8604L66.4004 282.34L72.4204 326.45Z" fill="#DBDBDB"/>
<path d="M66.4 282.34H36.21L37.75 271.03H64.86L66.4 282.34Z" fill="#C7C7C7"/>
<path d="M68.7301 267.11H33.8701V276.69H68.7301V267.11Z" fill="#DBDBDB"/>
<path d="M3.33984 326.45L79.3498 326.2L155.36 326.12L307.38 325.95L459.4 326.11L535.41 326.2L611.42 326.45L535.41 326.69L459.4 326.78L307.38 326.94L155.36 326.78L79.3498 326.69L3.33984 326.45Z" fill="#263238"/>
<path d="M309.38 400.98C467.742 400.98 596.12 386.913 596.12 369.56C596.12 352.207 467.742 338.14 309.38 338.14C151.018 338.14 22.6396 352.207 22.6396 369.56C22.6396 386.913 151.018 400.98 309.38 400.98Z" fill="#EBEBEB"/>
<path d="M242.63 364.36C240.3 365.15 173.49 365.36 170.93 363.78C169.93 363.18 169.36 353.45 168.93 341.67C168.84 339.13 168.77 336.5 168.71 333.84L163.38 298.2L208.05 297.91L212.26 333.56L212.09 341.4C212.09 341.4 237.71 352.75 240.33 354.81C242.95 356.87 244.96 363.57 242.63 364.36Z" fill="#EB9481"/>
<path d="M242.63 364.36C240.3 365.15 173.49 365.36 170.93 363.78C169.75 363.04 169.11 348.83 168.75 333.84L212.21 333.56L212.04 341.4C212.04 341.4 237.66 352.75 240.28 354.81C242.9 356.87 244.96 363.57 242.63 364.36Z" fill="white"/>
<path d="M242.63 364.36C240.3 365.15 173.49 365.36 170.93 363.78C169.93 363.18 169.36 353.45 168.93 341.67L212 341.4C212 341.4 237.62 352.75 240.24 354.81C242.86 356.87 244.96 363.57 242.63 364.36Z" fill="#A6A6A6"/>
<path d="M241.66 361.69C230.46 361.45 185.26 361.56 174.17 362.18C174.08 362.18 174.08 362.24 174.17 362.25C185.27 362.72 230.47 362.25 241.66 361.87C241.9 361.86 241.9 361.69 241.66 361.69Z" fill="#263238"/>
<path d="M235.97 352.42C234.724 352.392 233.487 352.623 232.335 353.098C231.184 353.573 230.143 354.282 229.28 355.18C227.706 356.783 226.817 358.934 226.8 361.18C226.8 361.25 226.92 361.25 226.93 361.18C227.302 358.968 228.379 356.935 230.001 355.385C231.623 353.835 233.703 352.851 235.93 352.58C235.951 352.586 235.973 352.582 235.992 352.571C236.011 352.56 236.024 352.541 236.03 352.52C236.035 352.499 236.032 352.477 236.021 352.458C236.009 352.439 235.991 352.426 235.97 352.42Z" fill="#263238"/>
<path d="M216.379 342.5C211.899 342.45 206.709 344.05 203.929 347.73C203.829 347.87 204.029 348.02 204.159 347.95C208.074 345.884 212.197 344.242 216.459 343.05C216.525 343.032 216.582 342.991 216.62 342.933C216.657 342.876 216.672 342.807 216.663 342.74C216.653 342.672 216.619 342.61 216.566 342.566C216.514 342.522 216.448 342.499 216.379 342.5Z" fill="#263238"/>
<path d="M219.86 343.83C215.37 343.83 210.18 345.39 207.41 349.06C207.3 349.21 207.5 349.36 207.64 349.29C211.548 347.217 215.669 345.571 219.93 344.38C219.995 344.362 220.051 344.322 220.089 344.265C220.126 344.209 220.142 344.142 220.133 344.075C220.125 344.008 220.093 343.946 220.042 343.901C219.992 343.856 219.927 343.831 219.86 343.83Z" fill="#263238"/>
<path d="M223.32 345.17C218.84 345.17 213.65 346.72 210.87 350.4C210.77 350.54 210.97 350.69 211.1 350.62C215.014 348.554 219.137 346.911 223.4 345.72C223.466 345.702 223.523 345.66 223.56 345.603C223.598 345.546 223.613 345.477 223.603 345.41C223.593 345.342 223.559 345.28 223.507 345.236C223.455 345.192 223.388 345.169 223.32 345.17Z" fill="#263238"/>
<path d="M226.789 346.51C222.299 346.46 217.109 348.06 214.339 351.74C214.229 351.88 214.439 352.03 214.569 351.96C218.483 349.892 222.606 348.25 226.869 347.06C226.935 347.042 226.992 347 227.03 346.943C227.067 346.886 227.082 346.817 227.073 346.75C227.063 346.682 227.029 346.62 226.976 346.576C226.924 346.532 226.858 346.508 226.789 346.51Z" fill="#263238"/>
<path d="M176.989 351.53C171.989 351.53 171.989 359.38 176.989 359.35C181.989 359.32 182.029 351.5 176.989 351.53Z" fill="#263238"/>
<path d="M221.19 330.52C218.92 328.64 216.06 330.52 214.67 332.45C212.356 335.861 210.977 339.82 210.67 343.93C210.67 344.02 210.74 344.06 210.81 344.06C210.828 344.145 210.865 344.224 210.92 344.291C210.975 344.358 211.045 344.411 211.124 344.445C211.204 344.479 211.29 344.494 211.376 344.488C211.463 344.482 211.546 344.455 211.62 344.41C214.8 342.2 218.48 340.22 220.89 337.09C222.26 335.27 223.38 332.27 221.19 330.52ZM215.73 340.06C214.19 341.19 212.6 342.24 211.1 343.43C211.9 341.19 212.59 338.93 213.61 336.77C214.081 335.735 214.622 334.732 215.23 333.77C216.23 332.28 220.59 328.52 221.05 333.39C221.31 336.06 217.56 338.72 215.73 340.06Z" fill="#263238"/>
<path d="M199.51 345.63C203.41 346.21 207.44 345.09 211.27 344.48C211.353 344.458 211.43 344.417 211.495 344.361C211.559 344.304 211.609 344.233 211.642 344.153C211.674 344.073 211.687 343.987 211.679 343.902C211.672 343.816 211.645 343.733 211.6 343.66C211.615 343.649 211.626 343.634 211.634 343.618C211.642 343.601 211.647 343.583 211.647 343.565C211.647 343.547 211.642 343.528 211.634 343.512C211.626 343.496 211.615 343.481 211.6 343.47C208.523 340.725 204.777 338.839 200.74 338C198.38 337.55 195.04 338.2 194.74 341.13C194.38 343.89 197.23 345.27 199.51 345.63ZM196.79 343.09C193.79 339.25 199.52 338.92 201.24 339.32C202.356 339.599 203.452 339.953 204.52 340.38C206.707 341.287 208.847 342.305 210.93 343.43C209.03 343.62 207.16 343.96 205.27 344.22C203.01 344.52 198.47 345.2 196.79 343.09Z" fill="#263238"/>
<path d="M97.6992 133.47C97.6992 133.47 149.569 221.71 150.959 227.91C153.089 237.43 164.379 331.44 164.379 331.44L218.379 330.44C218.379 330.44 209.079 247.55 200.269 220.24C193.929 200.57 148.149 135.33 148.149 135.33L97.6992 133.47Z" fill="#37474F"/>
<path d="M213.469 322.2C205.719 322.14 178.249 321.83 167.929 322.79C167.849 322.79 167.859 322.93 167.929 322.94C171.479 323.45 205.709 322.66 213.459 322.41C213.476 322.416 213.493 322.418 213.51 322.416C213.527 322.413 213.543 322.407 213.558 322.398C213.572 322.388 213.584 322.376 213.592 322.361C213.601 322.346 213.606 322.329 213.607 322.312C213.607 322.294 213.604 322.277 213.597 322.261C213.59 322.246 213.58 322.232 213.566 322.221C213.553 322.21 213.537 322.203 213.52 322.199C213.503 322.195 213.486 322.196 213.469 322.2Z" fill="#263238"/>
<path d="M106.549 141.57C109.949 146.9 113.549 152.12 117.009 157.41C120.469 162.7 123.949 167.99 127.379 173.27C134.219 183.937 140.886 194.673 147.379 205.48C150.548 210.489 153.259 215.774 155.479 221.27C157.506 226.767 159.029 232.437 160.029 238.21C161.089 244 161.789 249.85 162.439 255.7C163.106 261.92 163.803 268.143 164.529 274.37C165.949 287.11 167.373 299.85 168.799 312.59C168.969 314.15 169.139 315.71 169.299 317.28C169.299 317.51 168.909 317.55 168.879 317.28C167.289 304.63 165.969 291.93 164.529 279.28C163.809 272.967 163.093 266.657 162.379 260.35C161.709 254.48 161.069 248.6 160.159 242.77C159.324 237.015 158.054 231.332 156.359 225.77C154.492 220.01 151.99 214.476 148.899 209.27C142.649 198.48 136.029 187.88 129.409 177.27C122.789 166.66 115.989 155.96 109.009 145.48C108.149 144.19 107.279 142.9 106.379 141.63C106.309 141.56 106.489 141.47 106.549 141.57Z" fill="#263238"/>
<path d="M114.7 369.56C112.24 369.41 48.6996 343.67 46.9396 341.23C46.8612 341.086 46.8265 340.923 46.8396 340.76C46.8396 338.57 51.2496 330.93 54.9296 320.89C55.1596 320.25 56.7996 317.27 59.0696 313.26C65.3796 302.27 76.3796 283.34 76.3796 283.34L117.91 299.84L98.0296 329.59L94.9396 336.79C94.9396 336.79 114.43 356.94 116.07 359.79C117.71 362.64 117.15 369.7 114.7 369.56Z" fill="#EB9481"/>
<path d="M114.7 369.56C112.24 369.41 48.6996 343.67 46.9396 341.23C46.8612 341.086 46.8265 340.923 46.8396 340.76C46.8396 338.57 51.2496 330.93 54.9296 320.89C55.1596 320.25 56.7996 317.27 59.0696 313.26L98.0696 329.59L94.9796 336.79C94.9796 336.79 114.47 356.94 116.11 359.79C117.75 362.64 117.15 369.7 114.7 369.56Z" fill="white"/>
<path d="M114.7 369.56C112.24 369.41 48.6998 343.67 46.9398 341.23C46.2598 340.3 49.0998 331.63 54.9398 320.89L94.9398 336.8C94.9398 336.8 114.43 356.93 116.08 359.8C117.73 362.67 117.15 369.7 114.7 369.56Z" fill="#A6A6A6"/>
<path d="M114.8 366.72C104.51 362.3 62.5696 345.44 52.0596 341.86C51.9696 341.86 51.9496 341.86 52.0596 341.92C62.1696 346.52 104.24 363.04 114.76 366.92C114.96 366.97 115.02 366.81 114.8 366.72Z" fill="#263238"/>
<path d="M113 355.99C111.859 355.489 110.626 355.23 109.38 355.23C108.133 355.23 106.901 355.489 105.76 355.99C103.708 356.888 102.082 358.543 101.22 360.61C101.22 360.67 101.31 360.72 101.34 360.66C102.519 358.743 104.287 357.259 106.38 356.432C108.473 355.604 110.778 355.477 112.95 356.07C112.967 356.065 112.981 356.055 112.99 356.04C112.999 356.025 113.003 356.007 113 355.99Z" fill="#263238"/>
<path d="M98.5695 339.45C94.4395 337.72 89.0195 337.26 85.0695 339.63C84.9195 339.72 85.0695 339.93 85.1995 339.92C89.6028 339.474 94.0411 339.497 98.4395 339.99C98.5072 339.998 98.5752 339.98 98.6309 339.941C98.6865 339.902 98.726 339.844 98.742 339.777C98.7579 339.711 98.7492 339.642 98.7174 339.581C98.6857 339.521 98.6331 339.475 98.5695 339.45Z" fill="#263238"/>
<path d="M101.279 341.99C97.1494 340.26 91.7294 339.8 87.7794 342.17C87.6294 342.26 87.7794 342.47 87.9094 342.46C92.3125 342.008 96.7514 342.032 101.149 342.53C101.217 342.537 101.285 342.52 101.341 342.48C101.397 342.441 101.436 342.383 101.452 342.317C101.468 342.251 101.459 342.181 101.427 342.121C101.396 342.061 101.343 342.014 101.279 341.99Z" fill="#263238"/>
<path d="M104 344.53C99.8599 342.8 94.4399 342.34 90.4999 344.71C90.3399 344.8 90.4999 345.01 90.6199 345C95.023 344.548 99.4619 344.572 103.86 345.07C103.929 345.081 104 345.067 104.059 345.029C104.117 344.99 104.16 344.932 104.177 344.864C104.195 344.796 104.186 344.724 104.154 344.662C104.121 344.601 104.066 344.553 104 344.53Z" fill="#263238"/>
<path d="M106.71 347.07C102.57 345.34 97.1599 344.88 93.2099 347.24C93.0499 347.34 93.2099 347.55 93.3299 347.54C97.733 347.088 102.172 347.112 106.57 347.61C106.639 347.621 106.71 347.607 106.769 347.569C106.827 347.53 106.87 347.472 106.887 347.404C106.905 347.336 106.896 347.264 106.864 347.202C106.831 347.141 106.776 347.093 106.71 347.07Z" fill="#263238"/>
<path d="M58.6594 333.04C53.9894 331.18 51.0894 338.45 55.7794 340.31C60.4694 342.17 63.3794 334.9 58.6594 333.04Z" fill="#263238"/>
<path d="M107.52 330.15C106.11 327.56 102.78 328.2 100.75 329.49C97.3301 331.781 94.5716 334.929 92.7497 338.62C92.7417 338.636 92.7375 338.654 92.7373 338.672C92.7371 338.69 92.741 338.708 92.7487 338.725C92.7564 338.741 92.7677 338.755 92.7817 338.767C92.7958 338.778 92.8122 338.786 92.8297 338.79C92.8297 339.12 93.0497 339.51 93.4397 339.43C97.2297 338.56 101.38 338.11 104.78 336.11C106.73 334.95 108.85 332.6 107.52 330.15ZM98.8698 336.94C97.0198 337.41 95.1597 337.79 93.3297 338.33C94.8434 336.507 96.4488 334.761 98.1397 333.1C98.9722 332.308 99.8575 331.573 100.79 330.9C102.24 329.9 107.72 328.05 106.32 332.74C105.55 335.33 101.08 336.38 98.8698 336.94Z" fill="#263238"/>
<path d="M81.7499 336.02C85.1499 338.02 89.2999 338.49 93.0799 339.37C93.4699 339.46 93.7299 339.07 93.6999 338.73C93.7187 338.728 93.7366 338.721 93.752 338.71C93.7673 338.699 93.7796 338.685 93.7877 338.667C93.7957 338.65 93.7992 338.632 93.7979 338.613C93.7965 338.594 93.7903 338.576 93.7799 338.56C91.961 334.862 89.2022 331.706 85.7799 329.41C83.7799 328.11 80.4299 327.46 79.0099 330.04C77.5899 332.62 79.7599 334.85 81.7499 336.02ZM80.1899 332.64C78.7999 327.95 84.2699 329.81 85.7199 330.82C86.651 331.493 87.5332 332.232 88.3599 333.03C90.0476 334.694 91.6497 336.443 93.1599 338.27C91.3299 337.73 89.4699 337.34 87.6199 336.87C85.3799 336.27 80.9499 335.27 80.1899 332.64Z" fill="#263238"/>
<path d="M101.26 327.93L54.7695 309.16C54.7695 309.16 112.41 224.41 112.83 218.1C113.21 212.52 87.8895 163.9 86.8995 149.73C85.8195 134.43 93.1795 122.6 101.28 115.25L149.23 135.64C149.23 135.64 144.17 143.73 136.23 148.24C136.23 148.24 160.82 204.44 159.42 221.72C158.02 239 101.26 327.93 101.26 327.93Z" fill="#37474F"/>
<path d="M103.319 319.09C96.5995 316.2 98.5695 316.93 91.8095 314.09C88.5095 312.71 66.8095 303.68 63.4695 302.93C63.3995 302.93 63.3495 303.03 63.4195 303.07C66.3095 304.84 88.1895 313.49 91.5195 314.81C98.3295 317.49 96.3995 316.65 103.239 319.25C103.25 319.264 103.263 319.275 103.279 319.282C103.294 319.288 103.311 319.291 103.328 319.29C103.345 319.288 103.362 319.282 103.376 319.273C103.39 319.263 103.401 319.25 103.409 319.235C103.417 319.22 103.42 319.203 103.419 319.186C103.419 319.169 103.413 319.152 103.405 319.138C103.396 319.123 103.383 319.111 103.368 319.103C103.353 319.095 103.337 319.09 103.319 319.09Z" fill="#263238"/>
<path d="M144.09 147.21C139.098 148.374 134.214 149.959 129.49 151.95C129.471 151.957 129.454 151.967 129.438 151.98C129.423 151.994 129.411 152.01 129.402 152.028C129.393 152.046 129.388 152.066 129.387 152.086C129.386 152.106 129.389 152.126 129.395 152.145C129.402 152.164 129.412 152.182 129.425 152.197C129.439 152.212 129.455 152.224 129.473 152.233C129.491 152.242 129.511 152.247 129.531 152.248C129.551 152.249 129.571 152.247 129.59 152.24C134.49 150.81 139.47 149.47 144.29 147.78C144.66 147.65 144.47 147.13 144.09 147.21Z" fill="#263238"/>
<path d="M138.38 145.27C137.914 146.099 137.503 146.957 137.15 147.84C136.804 148.51 136.591 149.24 136.52 149.99C136.52 150.14 136.72 150.17 136.81 150.08C137.311 149.48 137.716 148.805 138.01 148.08C138.42 147.29 138.84 146.51 139.23 145.7C139.5 145.11 138.69 144.73 138.38 145.27Z" fill="#263238"/>
<path d="M138.979 140.73C139.279 139.99 139.569 139.26 139.879 138.52C140.189 137.78 140.579 137.02 140.879 136.24C140.879 136.12 141.119 136.24 141.069 136.33C140.769 137.07 140.579 137.85 140.349 138.61C140.119 139.37 139.859 140.13 139.609 140.89C139.139 142.3 138.609 143.7 137.959 145.07C138.746 145.109 139.532 144.973 140.259 144.67C141.002 144.194 141.574 143.494 141.889 142.67C142.309 141.85 142.699 141.01 143.129 140.19C143.659 139.303 144.104 138.369 144.459 137.4C144.459 137.28 144.699 137.4 144.649 137.49C143.997 139.54 143.143 141.519 142.099 143.4C141.649 144.13 141.299 144.9 140.479 145.18C139.592 145.428 138.663 145.493 137.749 145.37C137.629 145.37 137.489 145.37 137.529 145.19C137.939 143.68 138.423 142.192 138.979 140.73Z" fill="#263238"/>
<path d="M136.94 150.07C138.65 153.68 140.15 157.28 141.74 160.88C143.33 164.48 144.74 167.96 146.17 171.54C149.03 178.76 151.59 186.12 153.84 193.54C154.95 197.22 155.98 200.93 156.9 204.67C157.913 208.398 158.655 212.195 159.12 216.03C159.521 219.859 159.182 223.73 158.12 227.43C157.017 231.088 155.602 234.645 153.89 238.06C152.84 240.22 152.49 239.93 152.99 238.84C154.42 235.74 158.17 226.35 157.9 218.46C157.681 214.683 157.098 210.936 156.16 207.27C155.287 203.49 154.303 199.74 153.21 196.02C151.08 188.68 148.55 181.49 145.95 174.31C144.49 170.31 142.95 166.31 141.45 162.31C139.95 158.31 138.45 154.63 136.77 150.21C136.72 150.03 136.89 149.96 136.94 150.07Z" fill="#263238"/>
<path d="M101.649 138.14C102.479 137.83 103.649 138.34 104.489 138.48C105.577 138.665 106.676 138.775 107.779 138.81C108.87 138.849 109.963 138.812 111.049 138.7C112.143 138.672 113.215 138.388 114.179 137.87C115.761 136.718 117.117 135.284 118.179 133.64C119.445 131.961 120.49 130.126 121.289 128.18C121.289 128.06 121.499 128.18 121.459 128.26C121.109 129.37 120.849 130.49 120.459 131.58C120.028 132.604 119.513 133.591 118.919 134.53C117.956 136.42 116.533 138.037 114.779 139.23C112.849 140.33 110.369 140.23 108.219 140.14C106.972 140.067 105.732 139.904 104.509 139.65C103.629 139.46 102.149 139.32 101.589 138.55C101.563 138.521 101.543 138.486 101.532 138.448C101.521 138.41 101.518 138.37 101.523 138.331C101.529 138.292 101.543 138.255 101.565 138.222C101.587 138.189 101.616 138.161 101.649 138.14Z" fill="#263238"/>
<path d="M68.0395 300.27C75.6795 288.697 83.1795 277.03 90.5395 265.27C97.8995 253.51 105.16 241.66 112.32 229.72C114.03 226.87 116 224.03 117.1 220.87C118.3 217.44 117.62 214.11 116.54 210.75C114.5 204.62 112.116 198.611 109.4 192.75C106.72 186.84 103.83 181.03 100.99 175.2C98.1495 169.37 95.1795 163.61 92.9895 157.53C90.9895 151.72 90.1795 145.7 91.7395 139.68C93.2995 133.66 96.6595 128.34 100.17 123.33C101.09 122.01 102.04 120.7 102.97 119.33C103.04 119.23 103.19 119.33 103.12 119.45C99.2495 124.67 95.4795 130.2 93.2095 136.33C92.0493 139.352 91.4004 142.545 91.2895 145.78C91.2706 149.063 91.7804 152.329 92.7995 155.45C94.6795 161.53 97.6495 167.28 100.42 173C103.19 178.72 106.15 184.64 108.88 190.53C111.696 196.458 114.199 202.53 116.38 208.72C117.31 211.47 118.38 214.35 118.3 217.3C118.23 220.53 116.69 223.44 115.09 226.16C108.09 238.01 100.92 249.72 93.6195 261.36C86.3195 273 78.8095 284.64 71.2095 296.16L68.3295 300.51C68.1795 300.69 67.9195 300.48 68.0395 300.27Z" fill="#263238"/>
<path d="M151.889 81.7399C156.219 91.2399 178.089 104.33 188.329 105.74C195.689 106.74 218.069 107.1 225.739 105.93C234.739 104.55 227.859 80.2999 222.549 80.9299C207.949 82.6299 195.549 84.5299 191.649 84.5299C186.889 84.5299 161.139 76.2699 158.039 75.0999C150.439 72.2699 149.439 76.3499 151.889 81.7399Z" fill="#EB9481"/>
<path d="M152.03 84.2702C157.51 92.3802 175.72 105.64 175.72 105.64L178.25 100.04L186.62 81.5202C186.62 81.5202 169.89 76.2702 158.88 73.8702C157.584 73.5753 156.266 73.388 154.94 73.3102C147.91 72.9302 147.3 77.2702 152.03 84.2702Z" fill="#FF5760"/>
<path d="M152.03 84.2702C157.51 92.3802 175.72 105.64 175.72 105.64L178.25 100.04C171.46 92.1502 160.97 80.2002 154.94 73.3302C147.91 72.9302 147.3 77.2702 152.03 84.2702Z" fill="#263238"/>
<path d="M172.44 101.88C173.83 98.4699 180.01 84.7399 181.55 81.8799C181.65 81.6799 181.81 81.6999 181.72 81.8799C179.039 88.7078 175.988 95.3844 172.58 101.88C172.54 102 172.38 101.96 172.44 101.88Z" fill="#263238"/>
<path d="M219.869 81.1802C228.749 80.0202 239.739 78.0302 249.049 81.9802C250.095 82.3903 250.972 83.1406 251.539 84.1102C255.739 85.8102 256.199 88.3002 256.199 88.3002C259.629 91.0802 259.749 93.7002 259.749 93.7002C259.749 93.7002 264.669 95.7002 263.919 98.9202C263.099 102.48 256.359 98.9202 251.459 99.2102C240.209 99.9102 224.459 104.04 221.209 104.56L219.869 81.1802Z" fill="#EB9481"/>
<path d="M239.16 91.6599C242.45 91.4349 245.751 91.4349 249.04 91.6599C252.622 92.1094 256.166 92.8281 259.64 93.8099C259.663 93.8179 259.687 93.8166 259.709 93.8062C259.73 93.7959 259.747 93.7775 259.755 93.7549C259.763 93.7324 259.762 93.7076 259.751 93.686C259.741 93.6645 259.723 93.6479 259.7 93.6399C253.173 91.0791 246.068 90.3596 239.16 91.5599C239 91.5399 239 91.6699 239.16 91.6599Z" fill="#263238"/>
<path d="M237.07 81.2698C242.56 81.5498 245.99 82.4298 251.51 84.0898V84.0298C245.43 81.4898 242.94 81.2498 237.04 81.0298C236.85 81.1098 236.86 81.2698 237.07 81.2698Z" fill="#263238"/>
<path d="M237.96 100.91C236.53 101.58 236.88 102.33 239.61 102.96C242.34 103.59 253.69 103.78 253.29 107.74C252.89 111.7 236.88 111.2 232.41 109.8C227.94 108.4 221.21 104.56 221.21 104.56C224.38 104.03 231.82 102.02 237.96 100.91Z" fill="#EB9481"/>
<path d="M163.78 96.8799C163.71 98.5899 163.55 100.33 163.31 102.06C163.31 101.99 163.31 101.93 163.38 101.87C163.71 100.97 164.04 100.05 164.44 99.1799C164.44 99.1799 164.54 99.1799 164.53 99.1799C164.338 100.133 164.05 101.065 163.67 101.96C163.49 102.39 163.32 102.81 163.13 103.23C163.01 104 162.87 104.76 162.72 105.52C162.42 106.95 161.07 113.03 160.72 114.06C160.66 114.27 160.4 114.22 160.42 113.98C160.49 112.86 161.62 106.53 161.85 105.09C162.297 102.309 162.894 99.5554 163.64 96.8399C163.69 96.7899 163.79 96.8299 163.78 96.8799Z" fill="#263238"/>
<path d="M153.379 142.35C150.709 143.72 147.269 145.85 131.769 142.8C130.769 142.6 129.829 142.36 128.849 142.07C114.319 137.71 96.8494 120.62 95.8994 119.41C95.8994 119.41 118.989 81.9803 148.519 70.2103C152.169 68.7603 158.209 71.5603 161.519 75.0503C162.709 76.3003 165.299 85.4903 164.309 92.9303C163.319 100.37 156.039 140.98 153.379 142.35Z" fill="#FF5760"/>
<path d="M151.3 92.5898C151.411 94.1715 151.19 95.759 150.65 97.2498C150.523 95.6677 150.745 94.0769 151.3 92.5898Z" fill="white"/>
<path d="M141.229 118.08C141.293 118.867 141.266 119.659 141.149 120.44C141.053 121.227 140.862 121.999 140.579 122.74C140.51 121.95 140.537 121.154 140.659 120.37C140.761 119.588 140.953 118.819 141.229 118.08Z" fill="white"/>
<path d="M124.119 98.8101C124.233 100.392 124.011 101.98 123.469 103.47C123.345 101.888 123.566 100.298 124.119 98.8101Z" fill="white"/>
<path d="M157.889 116.78C157.953 117.571 157.926 118.366 157.809 119.15C157.713 119.937 157.522 120.709 157.239 121.45C157.17 120.66 157.197 119.864 157.319 119.08C157.42 118.294 157.612 117.523 157.889 116.78Z" fill="white"/>
<path d="M135.92 95.5098C136.707 95.4429 137.499 95.4664 138.28 95.5798C139.067 95.6796 139.839 95.8744 140.58 96.1598C138.998 96.2734 137.41 96.052 135.92 95.5098Z" fill="white"/>
<path d="M116.5 113.92C118.082 113.809 119.669 114.03 121.16 114.57C119.578 114.697 117.987 114.475 116.5 113.92Z" fill="white"/>
<path d="M139.38 133.85C140.962 133.737 142.55 133.958 144.04 134.5C142.458 134.625 140.867 134.403 139.38 133.85Z" fill="white"/>
<path d="M110.51 126.61C112.091 126.499 113.679 126.72 115.17 127.26C113.588 127.385 111.997 127.163 110.51 126.61Z" fill="white"/>
<path d="M151.149 74.6702C152.731 74.5587 154.319 74.7801 155.809 75.3202C154.228 75.4317 152.64 75.2102 151.149 74.6702Z" fill="white"/>
<path d="M145.499 81.0498C144.994 81.6575 144.416 82.2015 143.779 82.6698C143.16 83.149 142.489 83.5581 141.779 83.8898C142.282 83.286 142.852 82.7424 143.479 82.2698C144.105 81.7888 144.782 81.3796 145.499 81.0498Z" fill="white"/>
<path d="M114.709 99.1802C114.198 99.7826 113.617 100.323 112.979 100.79C112.366 101.278 111.694 101.688 110.979 102.01C111.494 101.41 112.074 100.87 112.709 100.4C113.324 99.914 113.996 99.5044 114.709 99.1802Z" fill="white"/>
<path d="M153.16 107.36C152.648 107.965 152.068 108.509 151.43 108.98C150.815 109.466 150.143 109.876 149.43 110.2C149.941 109.594 150.522 109.051 151.16 108.58C151.778 108.099 152.449 107.689 153.16 107.36Z" fill="white"/>
<path d="M128.259 123.04C127.748 123.646 127.167 124.189 126.529 124.66C125.913 125.145 125.242 125.554 124.529 125.88C125.041 125.274 125.621 124.731 126.259 124.26C126.878 123.779 127.548 123.369 128.259 123.04Z" fill="white"/>
<path d="M162.7 85.9399C162.188 86.5455 161.608 87.0892 160.97 87.5599C160.35 88.0391 159.679 88.4483 158.97 88.7799C159.481 88.1744 160.062 87.6307 160.7 87.1599C161.316 86.6752 161.987 86.2657 162.7 85.9399Z" fill="white"/>
<path d="M162.18 104.11C161.574 103.598 161.031 103.018 160.56 102.38C160.073 101.765 159.663 101.094 159.34 100.38C159.948 100.885 160.492 101.463 160.96 102.1C161.438 102.724 161.847 103.398 162.18 104.11Z" fill="white"/>
<path d="M106.68 116.63C106.074 116.118 105.531 115.538 105.06 114.9C104.579 114.282 104.169 113.611 103.84 112.9C104.445 113.411 104.989 113.992 105.46 114.63C105.945 115.246 106.354 115.917 106.68 116.63Z" fill="white"/>
<path d="M155.43 131.52C154.822 131.014 154.278 130.437 153.81 129.8C153.331 129.18 152.922 128.509 152.59 127.8C153.195 128.311 153.739 128.892 154.21 129.53C154.692 130.143 155.102 130.811 155.43 131.52Z" fill="white"/>
<path d="M130.999 89.0701C130.394 88.5621 129.85 87.9848 129.379 87.3501C128.902 86.7291 128.493 86.0585 128.159 85.3501C128.767 85.8556 129.311 86.4332 129.779 87.0701C130.256 87.6911 130.665 88.3616 130.999 89.0701Z" fill="white"/>
<path d="M131.43 140C130.824 139.488 130.281 138.908 129.81 138.27C129.33 137.651 128.921 136.98 128.59 136.27C129.198 136.776 129.742 137.353 130.21 137.99C130.691 138.612 131.1 139.286 131.43 140Z" fill="white"/>
<path d="M135.58 109.96C134.98 109.446 134.44 108.865 133.97 108.23C133.482 107.617 133.072 106.945 132.75 106.23C133.352 106.742 133.893 107.322 134.36 107.96C134.846 108.575 135.256 109.246 135.58 109.96Z" fill="white"/>
<path d="M156.11 85.0203C152.34 84.3203 148.8 76.5303 148.35 71.2903C148.35 70.9303 150.11 68.0803 152.12 64.5103C153.34 62.3403 154.63 59.8903 155.66 57.5703C155.87 57.1003 157.1 58.6903 157.1 58.6903L159.78 60.6903L168.63 67.4803C166.522 70.0091 164.732 72.7865 163.3 75.7503C163.158 76.0715 163.051 76.4066 162.98 76.7503C162.976 76.8069 162.976 76.8637 162.98 76.9203C162.43 78.9003 159.74 85.6903 156.11 85.0203Z" fill="#EB9481"/>
<path d="M162.98 76.7999C162.976 76.8565 162.976 76.9133 162.98 76.9699C162.454 76.8158 161.943 76.6185 161.45 76.3799C151.76 71.8399 156.03 58.8599 156.03 58.8599L159.83 60.7399L168.68 67.5299C166.572 70.0587 164.782 72.8361 163.35 75.7999C163.191 76.1191 163.067 76.4543 162.98 76.7999Z" fill="#263238"/>
<path d="M178.8 39.8501C178.8 39.8501 183.23 42.6601 183.25 47.6601C183.27 52.6601 181.25 57.5501 180.83 57.7301C180.41 57.9101 178.8 39.8501 178.8 39.8501Z" fill="#263238"/>
<path d="M156.819 42.45C154.159 47.7 154.299 64.25 157.619 68.51C162.439 74.69 171.719 76.82 177.329 70.71C182.759 64.79 182.199 43.23 178.329 39.21C172.699 33.27 160.759 34.68 156.819 42.45Z" fill="#EB9481"/>
<path d="M170.94 55.7002C170.94 55.7002 170.85 55.7602 170.86 55.8002C170.92 56.9302 170.8 58.2302 169.79 58.6302C169.79 58.6302 169.79 58.7002 169.79 58.6902C171.04 58.4902 171.18 56.7602 170.94 55.7002Z" fill="#263238"/>
<path d="M169.91 54.5499C168.09 54.4499 168.03 58.0899 169.72 58.1799C171.41 58.2699 171.43 54.6299 169.91 54.5499Z" fill="#263238"/>
<path d="M177.109 55.6602C177.109 55.6602 177.199 55.6602 177.199 55.7602C177.139 56.8902 177.269 58.1902 178.289 58.5802C178.289 58.5802 178.289 58.6502 178.289 58.6402C177.029 58.4502 176.879 56.7202 177.109 55.6602Z" fill="#263238"/>
<path d="M178.139 54.5C179.949 54.39 180.039 58.03 178.359 58.13C176.679 58.23 176.619 54.59 178.139 54.5Z" fill="#263238"/>
<path d="M168.769 51.7802C169.247 51.6442 169.718 51.484 170.179 51.3002C170.704 51.2051 171.183 50.9377 171.539 50.5402C171.626 50.3946 171.662 50.2247 171.642 50.0566C171.622 49.8884 171.547 49.7316 171.429 49.6102C171.159 49.4045 170.838 49.2747 170.5 49.2343C170.163 49.1938 169.821 49.2442 169.509 49.3802C168.834 49.5609 168.25 49.9847 167.869 50.5702C167.793 50.7095 167.759 50.8677 167.77 51.026C167.781 51.1843 167.837 51.3361 167.932 51.4635C168.026 51.5908 168.156 51.6884 168.304 51.7445C168.452 51.8006 168.614 51.813 168.769 51.7802Z" fill="#263238"/>
<path d="M179.38 53.3899C178.893 53.2812 178.412 53.1477 177.94 52.9899C177.413 52.9202 176.924 52.6775 176.55 52.2999C176.453 52.1609 176.407 51.9933 176.418 51.8245C176.428 51.6557 176.496 51.4955 176.61 51.3699C176.867 51.1494 177.18 51.0024 177.514 50.9444C177.849 50.8863 178.192 50.9193 178.51 51.0399C179.194 51.1817 179.8 51.574 180.21 52.1399C180.295 52.2739 180.34 52.4298 180.339 52.5888C180.337 52.7478 180.29 52.903 180.202 53.0354C180.114 53.1679 179.989 53.2719 179.843 53.3349C179.697 53.3978 179.536 53.417 179.38 53.3899Z" fill="#263238"/>
<path d="M168.379 66.3899C168.649 66.6599 168.909 67.0199 169.319 67.0599C169.74 67.0597 170.155 66.9711 170.539 66.7999C170.539 66.7999 170.609 66.7999 170.539 66.8599C170.375 67.0797 170.155 67.2508 169.901 67.3547C169.647 67.4586 169.37 67.4916 169.099 67.4499C168.871 67.3876 168.666 67.2597 168.509 67.0819C168.353 66.9042 168.252 66.6844 168.219 66.4499C168.211 66.4287 168.212 66.4052 168.222 66.3846C168.231 66.3639 168.248 66.3479 168.269 66.3399C168.291 66.332 168.314 66.3328 168.335 66.3421C168.355 66.3515 168.371 66.3687 168.379 66.3899Z" fill="#263238"/>
<path d="M174.919 61.57C174.919 61.57 174.969 63.25 174.919 64.04C173.383 63.877 171.831 63.9308 170.309 64.2C169.949 64.28 169.989 63.99 170.399 63.8C171.625 63.2398 172.99 63.0588 174.319 63.28C174.399 63.07 174.189 60.68 174.319 60.69C174.924 60.8088 175.51 61.0107 176.059 61.29C176.059 57.77 175.499 54.29 175.549 50.77C175.549 50.65 175.739 50.63 175.759 50.77C176.47 54.4937 176.805 58.2794 176.759 62.07C176.769 62.5 175.219 61.73 174.919 61.57Z" fill="#263238"/>
<path d="M172.67 63.44C172.271 64.4886 171.532 65.3726 170.57 65.95C169.06 66.56 168.57 65.19 170.09 63.95C170.887 63.5471 171.779 63.3707 172.67 63.44Z" fill="#263238"/>
<path d="M171.1 65.6403C170.94 65.7703 170.761 65.8748 170.57 65.9503C169.18 66.5103 168.63 65.4003 169.75 64.2803C170.51 64.3403 171.38 64.6203 171.1 65.6403Z" fill="#FF99BA"/>
<path d="M156.059 56.6C157.889 57.16 159.989 51.66 160.589 49.6C161.109 47.74 161.709 41.83 161.799 41.42C161.889 41.01 169.799 46.65 174.379 45.31C178.959 43.97 182.069 39.82 182.139 37.89C182.209 35.96 176.479 31.06 171.529 30.81C166.579 30.56 159.869 36.81 159.869 36.81C160.68 35.8902 161.416 34.9071 162.069 33.87C161.989 33.65 158.789 34.93 158.199 37.21C158.199 37.21 158.839 34.34 158.599 34.29C158.359 34.24 155.869 36.69 156.429 38.55C156.429 38.55 153.549 41.04 153.289 43.77C153.029 46.5 153.909 55.94 156.059 56.6Z" fill="#263238"/>
<path d="M177.659 44.2701C176.297 45.0086 174.83 45.5346 173.309 45.8301C171.602 45.9823 169.884 45.7074 168.309 45.0301C166.723 44.4173 165.25 43.5455 163.949 42.4501C162.799 41.5101 161.769 40.3601 160.539 39.5201C160.229 39.3001 159.879 39.7501 160.069 40.0301C162.122 42.9286 165.053 45.0887 168.429 46.1901C169.998 46.7013 171.672 46.7969 173.288 46.4673C174.904 46.1378 176.407 45.3945 177.649 44.3101C177.649 44.3101 177.679 44.2701 177.659 44.2701Z" fill="#263238"/>
<path d="M157.97 56.1098C157.97 56.1098 155.13 50.3498 152.57 51.2798C150.01 52.2098 151.57 60.1798 154.2 61.6398C154.522 61.8483 154.883 61.9895 155.261 62.055C155.639 62.1206 156.027 62.1092 156.4 62.0214C156.774 61.9336 157.126 61.7713 157.435 61.5442C157.744 61.3171 158.004 61.0299 158.2 60.6998L157.97 56.1098Z" fill="#EB9481"/>
<path d="M153.079 53.5498C153.079 53.5498 153.019 53.5498 153.079 53.6298C154.899 54.7098 155.639 56.6298 156.079 58.6298C155.997 58.4181 155.869 58.2269 155.705 58.0694C155.541 57.912 155.344 57.792 155.13 57.7178C154.915 57.6436 154.686 57.617 154.46 57.6398C154.234 57.6626 154.015 57.7343 153.819 57.8498C153.759 57.8498 153.819 57.9598 153.819 57.9598C154.177 57.9042 154.543 57.9609 154.867 58.122C155.192 58.2832 155.458 58.541 155.629 58.8598C155.916 59.3938 156.144 59.957 156.309 60.5398C156.369 60.7298 156.699 60.6798 156.669 60.4698C157.099 57.9798 155.699 54.2098 153.079 53.5498Z" fill="#263238"/>
<path d="M139.22 81.8302C137.22 93.1602 149.5 131.33 157.37 138.46C169.08 149.06 190.73 156.03 198.58 158.3C202 159.3 211.46 135.23 208 133.64C200.59 130.27 177.57 123.07 175.38 121.27C173.19 119.47 159.99 100.4 154.11 89.4202C146.24 74.6402 140.21 76.1002 139.22 81.8302Z" fill="#EB9481"/>
<path d="M202.169 131.52C202.169 131.52 212.389 134.13 218.979 136.14C222.659 137.27 228.799 139.76 231.129 141.82C234.609 144.91 247.189 160.03 243.589 163.16C240.329 166 231.169 151.63 231.169 151.63C231.169 151.63 241.689 165.31 237.169 168C232.649 170.69 224.379 153.08 224.379 153.08C224.379 153.08 234.869 167.38 229.739 169.41C225.859 170.94 217.539 155.41 217.539 155.41C217.539 155.41 226.479 167.76 222.539 169.51C218.199 171.45 209.629 157.59 209.629 157.59C198.909 160.36 192.629 157.29 188.499 154.59C187.529 153.93 202.169 131.52 202.169 131.52Z" fill="#EB9481"/>
<path d="M227.83 146.66C229.13 148.22 230.45 149.8 231.6 151.47C232.75 153.14 233.84 154.86 234.83 156.63C236.171 158.92 237.245 161.355 238.03 163.89C236.31 159.49 232.28 153.44 231.13 151.77C229.98 150.1 228.91 148.37 227.77 146.7C227.74 146.66 227.8 146.62 227.83 146.66Z" fill="#263238"/>
<path d="M221.719 150.71C223.939 152.47 228.589 159.01 230.379 163.4C230.459 163.58 230.379 163.57 230.249 163.4C228.849 161.23 223.169 152.83 221.669 150.74C221.639 150.71 221.689 150.68 221.719 150.71Z" fill="#263238"/>
<path d="M215.849 153.27C218.608 156.163 220.787 159.558 222.269 163.27C222.339 163.45 222.199 163.42 222.089 163.27C220.019 159.9 218.419 157.27 215.739 153.36C215.699 153.27 215.789 153.18 215.849 153.27Z" fill="#263238"/>
<path d="M150.38 82.6599C141.25 69.7499 135.79 74.5299 137.62 88.5499C139.34 101.66 143.93 117.28 143.93 117.28L166.93 106.12C166.93 106.12 156.19 90.9299 150.38 82.6599Z" fill="#FF5760"/>
<path d="M155.93 87.7402C156.233 88.4694 156.451 89.2311 156.58 90.0102C156.72 90.7919 156.771 91.5871 156.73 92.3802C156.43 91.6473 156.215 90.8822 156.09 90.1002C155.941 89.323 155.888 88.5305 155.93 87.7402Z" fill="white"/>
<path d="M142.3 95.59C143.768 94.993 145.347 94.7201 146.93 94.79C146.2 95.0899 145.439 95.3046 144.66 95.43C143.882 95.5784 143.09 95.6322 142.3 95.59Z" fill="white"/>
<path d="M142.89 75.5103C142.27 76.9717 141.347 78.2842 140.18 79.3602C140.799 77.8988 141.723 76.5863 142.89 75.5103Z" fill="white"/>
<path d="M162.38 101.62C162.076 102.351 161.691 103.046 161.23 103.69C160.781 104.342 160.258 104.94 159.67 105.47C160.289 104.009 161.213 102.696 162.38 101.62Z" fill="white"/>
<path d="M146.379 109.45C145.646 109.15 144.951 108.764 144.309 108.3C143.657 107.852 143.059 107.328 142.529 106.74C143.26 107.046 143.954 107.431 144.599 107.89C145.252 108.339 145.849 108.862 146.379 109.45Z" fill="white"/>
<path d="M153.38 86.5498C154.61 88.2398 155.88 89.8898 157.14 91.5498C156.82 90.7098 156.54 89.8598 156.3 88.9998H156.36C156.61 89.6598 156.9 90.3098 157.14 90.9998L157.5 91.9998C157.531 92.0681 157.557 92.1382 157.58 92.2098C158.58 93.4998 159.58 94.7898 160.5 96.1098C161.63 97.6898 162.72 99.2898 163.82 100.89C164.92 102.49 166.03 104.48 167.22 106.09C167.33 106.23 165.22 107.09 164.99 107.2C164.76 107.31 164.64 107.12 164.86 107.05C165.08 106.98 166.76 105.95 166.78 105.93C165.68 104.31 164.41 102.82 163.26 101.25C162.11 99.6798 160.97 98.1098 159.86 96.5198C157.61 93.2798 155.55 89.9198 153.31 86.6698L153.38 86.5498Z" fill="#263238"/>
<path d="M138.159 97.8302C138.509 98.5102 138.889 99.1802 139.159 99.8802L139.539 100.75C139.009 98.2602 138.539 95.7503 137.989 93.2603C139.049 97.2603 140.119 101.35 141.099 105.41C142.029 109.29 143.159 113.21 143.699 117.17C144.397 116.864 145.119 116.62 145.859 116.44C145.117 116.921 144.317 117.307 143.479 117.59C142.274 113.563 141.273 109.478 140.479 105.35C140.229 104.23 139.999 103.11 139.759 101.99C139.499 101.31 139.189 100.66 138.879 99.9902C138.569 99.3202 138.289 98.5702 138.009 97.8602C138.069 97.8202 138.139 97.7802 138.159 97.8302Z" fill="#263238"/>
<path d="M144.269 113.42C147.469 111.62 160.839 104.7 163.829 103.42C164.039 103.33 164.149 103.42 163.939 103.56C157.593 107.248 151.05 110.586 144.339 113.56C144.259 113.58 144.179 113.47 144.269 113.42Z" fill="#263238"/>
<path d="M510.7 376.32H206.02L250.07 126.47H554.75L510.7 376.32Z" fill="#FF5760"/>
<path d="M354.349 100.59H254.639L250.069 126.47H356.789L354.349 100.59Z" fill="#FF5760"/>
<g opacity="0.1">
<path d="M510.7 376.32H206.02L250.07 126.47H554.75L510.7 376.32Z" fill="black"/>
<path d="M354.349 100.59H254.639L250.069 126.47H356.789L354.349 100.59Z" fill="black"/>
</g>
<path d="M243.88 111.15C243.213 108.288 243.213 105.311 243.88 102.45C244.547 105.311 244.547 108.288 243.88 111.15Z" fill="#263238"/>
<path d="M235.019 113.71C234.001 112.654 233.124 111.471 232.409 110.19C231.66 108.936 231.072 107.592 230.659 106.19C231.68 107.24 232.558 108.42 233.269 109.7C234.017 110.959 234.605 112.306 235.019 113.71Z" fill="#263238"/>
<path d="M228.62 120.36C225.81 119.505 223.234 118.017 221.09 116.01C222.492 116.417 223.836 117.002 225.09 117.75C226.371 118.469 227.557 119.346 228.62 120.36Z" fill="#263238"/>
<path d="M226.38 129.32C223.518 129.987 220.541 129.987 217.68 129.32C220.541 128.653 223.518 128.653 226.38 129.32Z" fill="#263238"/>
<path d="M228.98 138.18C227.92 139.193 226.737 140.069 225.46 140.79C224.206 141.537 222.862 142.122 221.46 142.53C222.516 141.511 223.699 140.634 224.98 139.92C226.232 139.168 227.577 138.583 228.98 138.18Z" fill="#263238"/>
<path d="M235.62 144.57C234.768 147.384 233.28 149.964 231.27 152.11C231.677 150.706 232.265 149.362 233.02 148.11C233.732 146.824 234.606 145.635 235.62 144.57Z" fill="#263238"/>
<path d="M244.58 146.78C244.929 148.203 245.096 149.665 245.08 151.13C245.101 152.595 244.933 154.057 244.58 155.48C244.221 154.058 244.053 152.596 244.08 151.13C244.063 149.665 244.231 148.203 244.58 146.78Z" fill="#263238"/>
<path d="M253.439 144.27C254.458 145.326 255.335 146.509 256.049 147.79C256.801 149.042 257.386 150.387 257.789 151.79C255.779 149.644 254.291 147.064 253.439 144.25V144.27Z" fill="#263238"/>
<path d="M259.83 137.57C261.233 137.974 262.578 138.558 263.83 139.31C265.111 140.024 266.294 140.902 267.35 141.92C265.947 141.516 264.602 140.931 263.35 140.18C262.069 139.465 260.886 138.588 259.83 137.57Z" fill="#263238"/>
<path d="M262.04 128.61C264.905 127.943 267.885 127.943 270.75 128.61C267.885 129.276 264.905 129.276 262.04 128.61Z" fill="#263238"/>
<path d="M259.48 119.75C260.539 118.738 261.721 117.864 263 117.15C264.25 116.391 265.595 115.803 267 115.4C264.854 117.41 262.274 118.899 259.46 119.75H259.48Z" fill="#263238"/>
<path d="M252.83 113.36C253.242 111.959 253.826 110.616 254.57 109.36C255.285 108.079 256.162 106.896 257.18 105.84C256.776 107.243 256.191 108.588 255.44 109.84C254.726 111.121 253.848 112.304 252.83 113.36Z" fill="#263238"/>
<path d="M510.25 376.32H204.91L161.56 135.54H466.9L510.25 376.32Z" fill="#FF5760"/>
<path d="M267.37 282.73C274.378 282.73 280.06 277.048 280.06 270.04C280.06 263.031 274.378 257.35 267.37 257.35C260.361 257.35 254.68 263.031 254.68 270.04C254.68 277.048 260.361 282.73 267.37 282.73Z" fill="#263238"/>
<path d="M367.69 282.73C374.698 282.73 380.38 277.048 380.38 270.04C380.38 263.031 374.698 257.35 367.69 257.35C360.682 257.35 355 263.031 355 270.04C355 277.048 360.682 282.73 367.69 282.73Z" fill="#263238"/>
<path d="M335.759 284.76L335.059 283.43C334.999 283.31 328.439 271.19 315.249 271.19C303.249 271.19 300.249 282.6 300.169 283.09L299.809 284.54L296.899 283.84L297.249 282.38C297.249 282.24 300.829 268.19 315.249 268.19C330.249 268.19 337.419 281.47 337.719 282.04L338.419 283.36L335.759 284.76Z" fill="#263238"/>
<path d="M489.99 268.58C490.64 268.44 491.29 268.29 491.93 268.13" stroke="#263238" stroke-miterlimit="10"/>
<path d="M495.77 266.99C511.07 261.82 523.88 249.79 525.08 235.73C527.74 204.73 489.99 187.61 493.89 151.79C497.61 117.62 533.45 115.18 547.82 119.9C563.69 125.12 558.25 140.37 543.88 138.4C518.97 134.99 503.31 107.91 515.14 77.1899C523.98 54.2399 546.02 45.5799 554.97 42.9399" stroke="#263238" stroke-miterlimit="10" stroke-dasharray="4 4"/>
<path d="M556.9 42.41C558.13 42.09 558.84 41.96 558.84 41.96" stroke="#263238" stroke-miterlimit="10"/>
<path d="M574.7 36.4302C572.15 28.5302 555.07 31.3702 558.4 41.7002C561.73 52.0302 577.25 44.3402 574.7 36.4302Z" fill="#263238"/>
<path d="M549.11 33.2701C549.24 29.8001 554.06 27.1301 560.88 28.3601C567.7 29.5901 574.11 34.1901 574.11 34.1901C574.11 34.1901 567.38 38.2701 560.49 39.0201C553.6 39.7701 548.98 36.7301 549.11 33.2701Z" fill="#EBEBEB"/>
<path d="M574.11 34.1701C570.57 34.1701 567.04 34.0701 563.51 33.9601C559.98 33.8501 556.44 33.6701 552.91 33.3901C556.45 33.3901 559.99 33.4801 563.52 33.5901C567.05 33.7001 570.59 33.8801 574.11 34.1701Z" fill="#263238"/>
<path d="M555.96 30.1802C557.97 31.1416 559.865 32.3257 561.61 33.7102C560.604 33.2382 559.629 32.7039 558.69 32.1102C557.743 31.5206 556.832 30.8761 555.96 30.1802Z" fill="#263238"/>
<path d="M565.23 33.8398C563.421 35.3059 561.46 36.5732 559.38 37.6198C561.198 36.1519 563.17 34.8846 565.26 33.8398H565.23Z" fill="#263238"/>
<path d="M566.26 31.8901C567.269 32.3747 568.152 33.0866 568.84 33.9701C568.335 33.732 567.862 33.4331 567.43 33.0801C566.996 32.7294 566.603 32.3301 566.26 31.8901Z" fill="#263238"/>
<path d="M555.611 53.8202C557.741 56.5602 563.211 55.9002 568.021 50.9202C572.831 45.9402 575.381 38.4502 575.381 38.4502C575.381 38.4502 567.501 39.0502 561.491 42.4502C555.481 45.8502 553.471 51.0702 555.611 53.8202Z" fill="#EBEBEB"/>
<path d="M575.381 38.4502C572.501 40.4502 569.701 42.6702 566.891 44.8202C564.081 46.9702 561.331 49.1902 558.641 51.4802C561.521 49.4802 564.321 47.2702 567.121 45.1202C569.921 42.9702 572.651 40.7502 575.381 38.4502Z" fill="#263238"/>
<path d="M562.96 52.2699C563.495 51.2985 563.972 50.2968 564.39 49.2699C564.815 48.2401 565.176 47.1847 565.47 46.1099C564.934 47.0804 564.456 48.0822 564.04 49.1099C563.619 50.1412 563.258 51.1963 562.96 52.2699Z" fill="#263238"/>
<path d="M568.38 43.9099C566.04 43.7848 563.694 43.9089 561.38 44.2799C562.546 44.3499 563.714 44.3499 564.88 44.2799C566.053 44.2227 567.221 44.0992 568.38 43.9099Z" fill="#263238"/>
<path d="M570.311 44.8999C570.578 44.4061 570.786 43.8825 570.931 43.3399C571.079 42.8014 571.166 42.2479 571.191 41.6899C570.659 42.6799 570.358 43.7773 570.311 44.8999Z" fill="#263238"/>
<path d="M574.7 36.43C574.135 36.6134 573.529 36.6251 572.957 36.4635C572.386 36.302 571.875 35.9745 571.49 35.5226C571.105 35.0707 570.863 34.5146 570.794 33.9249C570.725 33.3351 570.832 32.7381 571.103 32.2096C571.374 31.681 571.795 31.2447 572.314 30.9557C572.832 30.6668 573.425 30.5383 574.017 30.5866C574.609 30.6348 575.173 30.8576 575.638 31.2267C576.103 31.5958 576.449 32.0946 576.63 32.66C576.873 33.4159 576.806 34.2371 576.444 34.9437C576.082 35.6504 575.455 36.1848 574.7 36.43Z" fill="#455A64"/>
<path d="M576.54 42.1399C575.975 42.3226 575.37 42.3338 574.799 42.1721C574.228 42.0104 573.718 41.6832 573.333 41.2317C572.948 40.7802 572.706 40.2247 572.637 39.6355C572.567 39.0463 572.675 38.4498 572.944 37.9214C573.214 37.3931 573.634 36.9566 574.152 36.6671C574.67 36.3776 575.262 36.2481 575.854 36.295C576.445 36.342 577.009 36.5632 577.475 36.9307C577.94 37.2983 578.287 37.7956 578.47 38.3599C578.591 38.7348 578.638 39.1301 578.607 39.523C578.576 39.9159 578.467 40.2988 578.288 40.6499C578.109 41.0009 577.862 41.3132 577.562 41.5689C577.262 41.8245 576.915 42.0186 576.54 42.1399Z" fill="#455A64"/>
<path d="M248.69 39.5898C248.211 44.1829 246.465 48.5526 243.647 52.2111C240.829 55.8696 237.049 58.6731 232.731 60.3087C228.412 61.9443 223.724 62.3477 219.189 61.4738C214.654 60.5999 210.452 58.4832 207.05 55.3598L194.58 57.1898L200.82 46.4098C199.393 42.9021 198.784 39.1155 199.04 35.3373C199.295 31.5592 200.409 27.889 202.295 24.6055C204.181 21.322 206.791 18.5115 209.926 16.3877C213.061 14.2638 216.639 12.8823 220.388 12.3482C224.137 11.8141 227.958 12.1414 231.562 13.3053C235.165 14.4691 238.456 16.4388 241.185 19.0649C243.913 21.691 246.007 24.9042 247.307 28.4607C248.608 32.0171 249.081 35.8232 248.69 39.5898Z" fill="white"/>
<path d="M248.69 39.5899C248.221 44.1807 246.491 48.5521 243.69 52.2199C242.322 54.075 240.672 55.7047 238.8 57.0499C236.969 58.4456 234.949 59.5736 232.8 60.3999C230.65 61.2467 228.391 61.7853 226.09 62C224.94 62.1032 223.784 62.1266 222.63 62.07C221.473 62.0402 220.319 61.9198 219.18 61.7099C214.584 60.8644 210.315 58.7556 206.85 55.6199L207.14 55.7099L194.69 57.6199L193.78 57.7599L194.24 56.9599L200.44 46.1599V46.5899C198.977 43.0176 198.355 39.1566 198.622 35.3055C198.889 31.4544 200.038 27.7162 201.98 24.3799C203.92 21.0541 206.586 18.2099 209.78 16.0599C212.969 13.9385 216.597 12.5666 220.391 12.047C224.186 11.5275 228.049 11.8738 231.69 13.0599C235.293 14.2857 238.577 16.3016 241.3 18.9599C244.018 21.6117 246.096 24.8476 247.376 28.4221C248.657 31.9966 249.106 35.8158 248.69 39.5899ZM248.69 39.5899C249.094 35.8344 248.63 32.0363 247.333 28.4887C246.036 24.9412 243.941 21.7391 241.21 19.1298C238.479 16.5205 235.185 14.5737 231.582 13.4398C227.979 12.3059 224.163 12.0151 220.43 12.5899C216.734 13.137 213.214 14.5261 210.14 16.6499C207.093 18.7905 204.548 21.568 202.68 24.7899C200.842 28.019 199.758 31.6224 199.51 35.3299C199.267 39.0626 199.868 42.802 201.27 46.2699L201.36 46.4899L201.24 46.6999L194.96 57.4599L194.52 56.7999L207 55.0499H207.17L207.29 55.1599C210.626 58.265 214.76 60.3805 219.23 61.2699C220.344 61.4969 221.474 61.634 222.61 61.68C223.746 61.7599 224.885 61.7599 226.02 61.68C228.297 61.4965 230.538 61.0019 232.68 60.2099C234.828 59.4282 236.849 58.3366 238.68 56.9699C240.544 55.6356 242.196 54.0274 243.58 52.1999C246.417 48.5499 248.186 44.1849 248.69 39.5899Z" fill="#263238"/>
<path d="M211.72 48.6201C211.701 48.289 211.75 47.9576 211.864 47.6462C211.978 47.3349 212.155 47.0504 212.384 46.8103C212.613 46.5703 212.889 46.3798 213.194 46.2508C213.5 46.1217 213.828 46.0568 214.16 46.0601C214.839 46.0601 215.49 46.3298 215.97 46.8099C216.45 47.29 216.72 47.9412 216.72 48.6201C216.72 49.2991 216.45 49.9502 215.97 50.4303C215.49 50.9104 214.839 51.1801 214.16 51.1801C213.828 51.1834 213.5 51.1185 213.194 50.9895C212.889 50.8604 212.613 50.6699 212.384 50.4299C212.155 50.1898 211.978 49.9053 211.864 49.594C211.75 49.2827 211.701 48.9512 211.72 48.6201ZM212.72 42.7101L212.14 22.8701H216.14L215.56 42.7101H212.72Z" fill="#FF5760"/>
<path d="M221.231 48.6201C221.211 48.2899 221.26 47.9593 221.374 47.6486C221.488 47.338 221.664 47.0539 221.891 46.814C222.119 46.5741 222.394 46.3834 222.698 46.2538C223.002 46.1241 223.33 46.0582 223.661 46.0601C224.34 46.0601 224.991 46.3298 225.471 46.8099C225.951 47.29 226.221 47.9412 226.221 48.6201C226.221 49.2991 225.951 49.9502 225.471 50.4303C224.991 50.9104 224.34 51.1801 223.661 51.1801C223.33 51.182 223.002 51.1161 222.698 50.9865C222.394 50.8568 222.119 50.6661 221.891 50.4262C221.664 50.1863 221.488 49.9023 221.374 49.5916C221.26 49.281 221.211 48.9503 221.231 48.6201ZM222.231 42.7101L221.681 22.8701H225.681L225.101 42.7101H222.231Z" fill="#FF5760"/>
<path d="M230.731 48.6201C230.711 48.289 230.76 47.9576 230.875 47.6462C230.989 47.3349 231.166 47.0504 231.395 46.8103C231.624 46.5703 231.899 46.3798 232.205 46.2508C232.51 46.1217 232.839 46.0568 233.171 46.0601C233.85 46.0601 234.501 46.3298 234.981 46.8099C235.461 47.29 235.731 47.9412 235.731 48.6201C235.731 49.2991 235.461 49.9502 234.981 50.4303C234.501 50.9104 233.85 51.1801 233.171 51.1801C232.839 51.1834 232.51 51.1185 232.205 50.9895C231.899 50.8604 231.624 50.6699 231.395 50.4299C231.166 50.1898 230.989 49.9053 230.875 49.594C230.76 49.2827 230.711 48.9512 230.731 48.6201ZM231.731 42.7101L231.151 22.8701H235.151L234.581 42.7101H231.731Z" fill="#FF5760"/>
</svg>
