<svg width="35" height="35" viewBox="0 0 35 35" fill="none" xmlns="http://www.w3.org/2000/svg">
<path d="M25.6177 4H9.46986C8.15474 4 7 5.04959 7 6.29196V29.4662C7 29.882 7.11931 30.2286 7.31159 30.4964C7.42329 30.6525 7.57244 30.7798 7.74616 30.8675C7.91989 30.9552 8.11299 31.0007 8.30883 30.9999C8.6842 30.9999 9.08386 30.8378 9.45293 30.5319L16.6775 24.5811C16.9006 24.3962 17.2211 24.2903 17.5543 24.2903C17.8874 24.2903 18.2073 24.3962 18.4311 24.5816L25.6315 30.531C26.0018 30.8378 26.3739 31 26.7487 31C27.3823 31 28 30.5258 28 29.4663V6.29196C28 5.04959 26.9328 4 25.6177 4Z" fill="url(#paint0_linear_182_8203)"/>
<defs>
<linearGradient id="paint0_linear_182_8203" x1="17.5" y1="4" x2="17.5" y2="31" gradientUnits="userSpaceOnUse">
<stop stop-color="#F42A3E"/>
<stop offset="1" stop-color="#FF8C49"/>
</linearGradient>
</defs>
</svg>
