<svg width="35" height="35" viewBox="0 0 35 35" fill="none" xmlns="http://www.w3.org/2000/svg">
<g clip-path="url(#clip0_182_8064)">
<path d="M34.6679 33.0958L25.6315 24.2038C27.9978 21.6328 29.4518 18.2327 29.4518 14.4912C29.4506 6.48742 22.8582 0 14.7253 0C6.59247 0 0 6.48742 0 14.4912C0 22.495 6.59247 28.9824 14.7253 28.9824C18.2393 28.9824 21.4622 27.767 23.9938 25.7463L33.0653 34.6734C33.5073 35.1088 34.2249 35.1088 34.6669 34.6734C34.772 34.5707 34.8556 34.4481 34.9127 34.3127C34.9697 34.1772 34.9992 34.0318 34.9993 33.8848C34.9994 33.7379 34.9701 33.5924 34.9132 33.4569C34.8563 33.3214 34.7729 33.1987 34.6679 33.0958ZM14.7253 26.7528C7.84405 26.7528 2.2657 21.2631 2.2657 14.4912C2.2657 7.71926 7.84405 2.22956 14.7253 2.22956C21.6067 2.22956 27.1849 7.71926 27.1849 14.4912C27.1849 21.2631 21.6067 26.7528 14.7253 26.7528Z" fill="url(#paint0_linear_182_8064)"/>
</g>
<defs>
<linearGradient id="paint0_linear_182_8064" x1="17.4996" y1="0" x2="17.4996" y2="35" gradientUnits="userSpaceOnUse">
<stop stop-color="#F42A3E"/>
<stop offset="1" stop-color="#FF8C49"/>
</linearGradient>
<clipPath id="clip0_182_8064">
<rect width="35" height="35" fill="white"/>
</clipPath>
</defs>
</svg>
