<svg width="35" height="35" viewBox="0 0 35 35" fill="none" xmlns="http://www.w3.org/2000/svg">
<path d="M27.7539 22.6953C25.7277 22.6953 23.9421 23.6921 22.8206 25.2079L13.1243 20.2429C13.2853 19.6941 13.3984 19.1255 13.3984 18.5254C13.3984 17.7115 13.2316 16.9377 12.9433 16.2261L23.0909 10.1196C24.2202 11.445 25.8801 12.3047 27.7539 12.3047C31.1465 12.3047 33.9062 9.54495 33.9062 6.15234C33.9062 2.75974 31.1465 0 27.7539 0C24.3613 0 21.6016 2.75974 21.6016 6.15234C21.6016 6.93417 21.7625 7.6758 22.0296 8.36432L11.8518 14.4886C10.7235 13.2027 9.08749 12.373 7.24609 12.373C3.85349 12.373 1.09375 15.1328 1.09375 18.5254C1.09375 21.918 3.85349 24.6777 7.24609 24.6777C9.30576 24.6777 11.1215 23.6517 12.2387 22.0933L21.9031 27.0422C21.7251 27.6168 21.6016 28.2153 21.6016 28.8477C21.6016 32.2403 24.3613 35 27.7539 35C31.1465 35 33.9062 32.2403 33.9062 28.8477C33.9062 25.455 31.1465 22.6953 27.7539 22.6953Z" fill="url(#paint0_linear_182_8197)"/>
<defs>
<linearGradient id="paint0_linear_182_8197" x1="17.5" y1="0" x2="17.5" y2="35" gradientUnits="userSpaceOnUse">
<stop stop-color="#F42A3E"/>
<stop offset="1" stop-color="#FF8C49"/>
</linearGradient>
</defs>
</svg>
