<svg width="61" height="11" viewBox="0 0 61 11" fill="none" xmlns="http://www.w3.org/2000/svg">
<path d="M11.2617 4.03467C11.2168 3.8969 11.1342 3.77444 11.0233 3.68114C10.9124 3.58783 10.7777 3.52739 10.6342 3.50664L7.66775 3.07559L6.34219 0.397185C6.07972 -0.132395 5.21226 -0.132395 4.94979 0.397185L3.62423 3.07559L0.66478 3.50664C0.52144 3.52769 0.386827 3.58836 0.276106 3.6818C0.165385 3.77524 0.0829545 3.89774 0.0381007 4.0355C-0.00675124 4.17315 -0.0121185 4.32062 0.0226081 4.46117C0.0573347 4.60172 0.130764 4.72972 0.234564 4.83065L2.381 6.92275L1.87465 9.87446C1.85028 10.0174 1.8663 10.1643 1.9209 10.2986C1.97551 10.4329 2.06652 10.5493 2.1837 10.6347C2.30122 10.7196 2.44007 10.77 2.58466 10.7803C2.72926 10.7906 2.87385 10.7603 3.0022 10.693L5.64569 9.29901L8.29693 10.693C8.41035 10.7528 8.53461 10.7823 8.65804 10.7823C8.82213 10.7819 8.98201 10.7303 9.11543 10.6348C9.23256 10.5494 9.32355 10.433 9.37815 10.2987C9.43274 10.1644 9.44879 10.0175 9.42448 9.87458L8.91896 6.92287L11.0654 4.83076C11.1693 4.7297 11.2427 4.60152 11.2775 4.4608C11.3122 4.32008 11.3067 4.17245 11.2617 4.03467ZM23.6868 4.03467C23.6418 3.8969 23.5592 3.77444 23.4484 3.68114C23.3375 3.58783 23.2027 3.52739 23.0593 3.50664L20.0928 3.07559L18.7672 0.397185C18.5048 -0.132395 17.6373 -0.132395 17.3748 0.397185L16.0493 3.07559L13.0898 3.50664C12.9465 3.52769 12.8119 3.58836 12.7012 3.6818C12.5904 3.77524 12.508 3.89774 12.4632 4.0355C12.4183 4.17315 12.4129 4.32062 12.4477 4.46117C12.4824 4.60172 12.5558 4.72972 12.6596 4.83065L14.8061 6.92275L14.2997 9.87446C14.2753 10.0174 14.2912 10.1643 14.3458 10.2986C14.4005 10.433 14.4915 10.5494 14.6088 10.6347C14.7263 10.7196 14.8651 10.77 15.0097 10.7803C15.1543 10.7906 15.2989 10.7603 15.4273 10.693L18.0707 9.29901L20.722 10.693C20.8354 10.7528 20.9597 10.7823 21.0831 10.7823C21.2472 10.7819 21.4071 10.7303 21.5405 10.6348C21.6576 10.5494 21.7486 10.433 21.8032 10.2987C21.8578 10.1644 21.8738 10.0175 21.8495 9.87458L21.344 6.92287L23.4905 4.83076C23.5943 4.7297 23.6678 4.60152 23.7025 4.4608C23.7372 4.32008 23.7318 4.17245 23.6868 4.03467ZM36.1119 4.03467C36.0669 3.8969 35.9843 3.77444 35.8734 3.68114C35.7625 3.58783 35.6278 3.52739 35.4843 3.50664L32.5179 3.07559L31.1923 0.397185C30.9298 -0.132395 30.0624 -0.132395 29.7999 0.397185L28.4743 3.07559L25.5149 3.50664C25.3716 3.52769 25.2369 3.58836 25.1262 3.6818C25.0155 3.77524 24.9331 3.89774 24.8882 4.0355C24.8434 4.17315 24.838 4.32062 24.8727 4.46117C24.9074 4.60172 24.9809 4.72972 25.0847 4.83065L27.2311 6.92275L26.7248 9.87446C26.7004 10.0174 26.7164 10.1643 26.771 10.2986C26.8256 10.4329 26.9166 10.5493 27.0338 10.6347C27.1513 10.7196 27.2902 10.77 27.4348 10.7803C27.5794 10.7906 27.724 10.7603 27.8523 10.693L30.4957 9.29901L33.1469 10.693C33.2603 10.7528 33.3846 10.7823 33.508 10.7823C33.6721 10.7819 33.832 10.7303 33.9654 10.6348C34.0826 10.5494 34.1735 10.433 34.2281 10.2987C34.2827 10.1644 34.2988 10.0175 34.2745 9.87458L33.769 6.92287L35.9154 4.83076C36.0193 4.72972 36.0928 4.60155 36.1275 4.46083C36.1623 4.3201 36.1568 4.17246 36.1119 4.03467ZM48.5369 4.03467C48.492 3.8969 48.4094 3.77444 48.2985 3.68114C48.1876 3.58783 48.0528 3.52739 47.9094 3.50664L44.9429 3.07559L43.6174 0.397185C43.3549 -0.132395 42.4874 -0.132395 42.225 0.397185L40.8994 3.07559L37.94 3.50664C37.7966 3.52769 37.662 3.58836 37.5513 3.6818C37.4406 3.77524 37.3581 3.89774 37.3133 4.0355C37.2684 4.17315 37.2631 4.32062 37.2978 4.46117C37.3325 4.60172 37.4059 4.72972 37.5097 4.83065L39.6562 6.92275L39.1498 9.87446C39.1255 10.0174 39.1415 10.1643 39.1961 10.2986C39.2507 10.4329 39.3417 10.5493 39.4589 10.6347C39.5764 10.7196 39.7152 10.77 39.8598 10.7803C40.0044 10.7906 40.149 10.7603 40.2774 10.693L42.9207 9.29901L45.572 10.693C45.6854 10.7528 45.8097 10.7823 45.9331 10.7823C46.0972 10.7819 46.2571 10.7303 46.3905 10.6348C46.5076 10.5494 46.5986 10.433 46.6532 10.2987C46.7078 10.1644 46.7238 10.0175 46.6995 9.87458L46.194 6.92287L48.3405 4.83076C48.4443 4.7297 48.5178 4.60154 48.5526 4.46082C48.5873 4.3201 48.5819 4.17246 48.5369 4.03467ZM60.962 4.03467C60.9169 3.89696 60.8343 3.77457 60.7234 3.68128C60.6125 3.58799 60.4778 3.52751 60.3345 3.50664L57.368 3.07559L56.0424 0.397185C55.78 -0.132395 54.9125 -0.132395 54.65 0.397185L53.3245 3.07559L50.365 3.50664C50.2217 3.52769 50.0871 3.58836 49.9763 3.6818C49.8656 3.77524 49.7832 3.89774 49.7383 4.0355C49.6935 4.17315 49.6881 4.32062 49.7228 4.46117C49.7576 4.60172 49.831 4.72972 49.9348 4.83065L52.0812 6.92275L51.5749 9.87446C51.5505 10.0174 51.5665 10.1643 51.6211 10.2986C51.6757 10.4329 51.7668 10.5493 51.8839 10.6347C52.0165 10.7307 52.1761 10.7823 52.3398 10.7822C52.4663 10.7821 52.591 10.7515 52.7031 10.6928L55.3466 9.29889L57.9986 10.6928C58.1267 10.7608 58.2713 10.7914 58.416 10.7809C58.5606 10.7705 58.6994 10.7195 58.8164 10.6339C58.9333 10.5485 59.0242 10.4322 59.0786 10.298C59.1331 10.1638 59.1491 10.0171 59.1247 9.87434L58.6192 6.92264L60.7656 4.83053C60.8694 4.7294 60.9427 4.60127 60.9774 4.46062C61.0121 4.31998 61.0068 4.17243 60.962 4.03467Z" fill="#FFC700"/>
</svg>
