<svg width="92" height="16" viewBox="0 0 92 16" fill="none" xmlns="http://www.w3.org/2000/svg">
<path d="M16.9849 5.98674C16.9171 5.78231 16.7926 5.60061 16.6253 5.46216C16.4581 5.32371 16.2548 5.23403 16.0385 5.20323L11.5645 4.56363L9.56527 0.589353C9.16942 -0.196451 7.86111 -0.196451 7.46526 0.589353L5.46606 4.56363L1.00262 5.20323C0.786434 5.23448 0.583411 5.3245 0.416422 5.46314C0.249433 5.60179 0.125112 5.78356 0.0574634 5.98797C-0.0101822 6.19223 -0.0182771 6.41104 0.0340975 6.61959C0.086472 6.82814 0.197219 7.01808 0.353768 7.16783L3.59102 10.2721L2.82735 14.652C2.79059 14.864 2.81475 15.082 2.8971 15.2813C2.97945 15.4806 3.11672 15.6533 3.29346 15.78C3.47069 15.906 3.68011 15.9808 3.89818 15.996C4.11625 16.0113 4.33433 15.9664 4.52791 15.8665L8.51481 13.7981L12.5134 15.8665C12.6845 15.9552 12.8719 15.9991 13.058 15.9991C13.3055 15.9984 13.5466 15.9219 13.7479 15.7802C13.9245 15.6535 14.0617 15.4807 14.1441 15.2814C14.2264 15.0822 14.2506 14.8642 14.214 14.6521L13.4515 10.2723L16.6888 7.16801C16.8455 7.01804 16.9563 6.82785 17.0086 6.61905C17.061 6.41024 17.0528 6.19118 16.9849 5.98674ZM35.7244 5.98674C35.6565 5.78231 35.532 5.60061 35.3647 5.46216C35.1975 5.32371 34.9943 5.23403 34.7779 5.20323L30.3039 4.56363L28.3047 0.589353C27.9088 -0.196451 26.6005 -0.196451 26.2047 0.589353L24.2055 4.56363L19.7421 5.20323C19.5259 5.23448 19.3228 5.3245 19.1559 5.46314C18.9889 5.60179 18.8645 5.78356 18.7969 5.98797C18.7292 6.19223 18.7212 6.41104 18.7735 6.61959C18.8259 6.82814 18.9366 7.01808 19.0932 7.16783L22.3304 10.2721L21.5668 14.652C21.5299 14.8641 21.554 15.0821 21.6364 15.2814C21.7187 15.4807 21.8561 15.6534 22.0329 15.78C22.2101 15.906 22.4195 15.9808 22.6376 15.9961C22.8557 16.0113 23.0738 15.9665 23.2673 15.8665L27.2542 13.7981L31.2528 15.8665C31.4239 15.9552 31.6113 15.9991 31.7975 15.9991C32.0449 15.9984 32.2861 15.9219 32.4873 15.7802C32.664 15.6535 32.8012 15.4807 32.8835 15.2814C32.9659 15.0822 32.9901 14.8642 32.9534 14.6521L32.191 10.2723L35.4282 7.16801C35.5849 7.01804 35.6957 6.82785 35.7481 6.61905C35.8004 6.41024 35.7922 6.19118 35.7244 5.98674ZM54.4638 5.98674C54.396 5.78231 54.2714 5.60061 54.1042 5.46216C53.9369 5.32371 53.7337 5.23403 53.5174 5.20323L49.0433 4.56363L47.0441 0.589353C46.6483 -0.196451 45.34 -0.196451 44.9441 0.589353L42.9449 4.56363L38.4815 5.20323C38.2653 5.23448 38.0623 5.3245 37.8953 5.46314C37.7283 5.60179 37.604 5.78356 37.5363 5.98797C37.4687 6.19223 37.4606 6.41104 37.513 6.61959C37.5653 6.82814 37.6761 7.01808 37.8326 7.16783L41.0699 10.2721L40.3062 14.652C40.2695 14.864 40.2936 15.082 40.376 15.2813C40.4583 15.4806 40.5956 15.6533 40.7723 15.78C40.9495 15.906 41.159 15.9808 41.377 15.996C41.5951 16.0113 41.8132 15.9664 42.0068 15.8665L45.9935 13.7981L49.9921 15.8665C50.1631 15.9552 50.3506 15.9991 50.5367 15.9991C50.7842 15.9984 51.0253 15.9219 51.2265 15.7802C51.4032 15.6535 51.5404 15.4807 51.6228 15.2814C51.7051 15.0822 51.7293 14.8642 51.6926 14.6521L50.9302 10.2723L54.1675 7.16801C54.3242 7.01807 54.4351 6.82789 54.4874 6.61908C54.5398 6.41027 54.5316 6.19119 54.4638 5.98674ZM73.2032 5.98674C73.1354 5.78231 73.0108 5.60061 72.8436 5.46216C72.6764 5.32371 72.4731 5.23403 72.2568 5.20323L67.7828 4.56363L65.7836 0.589353C65.3877 -0.196451 64.0794 -0.196451 63.6836 0.589353L61.6843 4.56363L57.2209 5.20323C57.0047 5.23448 56.8017 5.3245 56.6347 5.46314C56.4677 5.60179 56.3434 5.78356 56.2758 5.98797C56.2081 6.19223 56.2 6.41104 56.2524 6.61959C56.3048 6.82814 56.4155 7.01808 56.5721 7.16783L59.8093 10.2721L59.0456 14.652C59.0089 14.864 59.033 15.082 59.1154 15.2813C59.1977 15.4806 59.335 15.6533 59.5117 15.78C59.689 15.906 59.8984 15.9808 60.1165 15.996C60.3345 16.0113 60.5526 15.9664 60.7462 15.8665L64.7329 13.7981L68.7315 15.8665C68.9026 15.9552 69.09 15.9991 69.2761 15.9991C69.5236 15.9984 69.7647 15.9219 69.966 15.7802C70.1426 15.6535 70.2799 15.4807 70.3622 15.2814C70.4445 15.0822 70.4687 14.8642 70.4321 14.6521L69.6697 10.2723L72.9069 7.16801C73.0636 7.01804 73.1744 6.82787 73.2268 6.61907C73.2792 6.41027 73.271 6.1912 73.2032 5.98674ZM91.9426 5.98674C91.8747 5.7824 91.7501 5.6008 91.5829 5.46238C91.4156 5.32395 91.2125 5.2342 90.9962 5.20323L86.5222 4.56363L84.523 0.589353C84.1271 -0.196451 82.8188 -0.196451 82.423 0.589353L80.4238 4.56363L75.9603 5.20323C75.7442 5.23448 75.5411 5.3245 75.3741 5.46314C75.2072 5.60179 75.0828 5.78356 75.0152 5.98797C74.9475 6.19223 74.9394 6.41104 74.9918 6.61959C75.0442 6.82814 75.1549 7.01808 75.3115 7.16783L78.5487 10.2721L77.7851 14.652C77.7483 14.864 77.7725 15.082 77.8548 15.2813C77.9372 15.4806 78.0744 15.6533 78.2512 15.78C78.4512 15.9224 78.6918 15.999 78.9387 15.9989C79.1295 15.9988 79.3176 15.9533 79.4867 15.8663L83.4736 13.7979L87.4733 15.8663C87.6665 15.9672 87.8846 16.0125 88.1028 15.997C88.3209 15.9816 88.5302 15.9059 88.7067 15.7788C88.8831 15.6521 89.02 15.4795 89.1022 15.2804C89.1843 15.0813 89.2084 14.8636 89.1717 14.6518L88.4093 10.272L91.6465 7.16765C91.803 7.0176 91.9136 6.82747 91.9659 6.61878C92.0183 6.41009 92.0102 6.19115 91.9426 5.98674Z" fill="#FF9B20"/>
</svg>
