<svg width="53" height="53" viewBox="0 0 53 53" fill="none" xmlns="http://www.w3.org/2000/svg">
<path d="M39.6667 18.3676C38.6868 18.7692 37.6319 19.0408 36.5253 19.1622C37.6554 18.5381 38.5225 17.5486 38.931 16.3698C37.8729 16.9476 36.7037 17.368 35.4547 17.5934C34.4592 16.6125 33.0364 16 31.4618 16C28.4425 16 25.9929 18.2607 25.9929 21.0488C25.9929 21.4446 26.0399 21.8288 26.1338 22.1986C21.5868 21.9877 17.5564 19.9798 14.8564 16.9216C14.3852 17.6699 14.116 18.5381 14.116 19.4626C14.116 21.2134 15.0817 22.7591 16.5499 23.6649C15.6546 23.6403 14.8094 23.4106 14.0706 23.035V23.0971C14.0706 25.5442 15.9567 27.5854 18.4611 28.0477C18.0024 28.1661 17.5188 28.2254 17.0195 28.2254C16.6673 28.2254 16.323 28.195 15.9896 28.1358C16.6861 30.1408 18.7052 31.6013 21.1 31.6403C19.228 32.9953 16.8677 33.8028 14.3054 33.8028C13.864 33.8028 13.4273 33.7797 13 33.7335C15.4214 35.1636 18.2983 36 21.3865 36C31.4508 36 36.9526 28.3077 36.9526 21.6352C36.9526 21.4157 36.9479 21.1961 36.9385 20.9809C38.0075 20.2687 38.9357 19.3803 39.6667 18.3676Z" fill="#F42A3E"/>
<path fill-rule="evenodd" clip-rule="evenodd" d="M46.8735 1.51205H6.04819C3.54295 1.51205 1.51205 3.54295 1.51205 6.04819V46.8735C1.51205 49.3787 3.54295 51.4096 6.04819 51.4096H46.8735C49.3787 51.4096 51.4096 49.3787 51.4096 46.8735V6.04819C51.4096 3.54295 49.3787 1.51205 46.8735 1.51205ZM6.04819 0C2.70787 0 0 2.70787 0 6.04819V46.8735C0 50.2138 2.70787 52.9217 6.04819 52.9217H46.8735C50.2138 52.9217 52.9217 50.2138 52.9217 46.8735V6.04819C52.9217 2.70787 50.2138 0 46.8735 0H6.04819Z" fill="url(#paint0_linear_261_235)"/>
<defs>
<linearGradient id="paint0_linear_261_235" x1="2" y1="3" x2="51.5" y2="51.5" gradientUnits="userSpaceOnUse">
<stop stop-color="#F42A3E"/>
<stop offset="1" stop-color="#FF8C49"/>
</linearGradient>
</defs>
</svg>
