<svg width="53" height="53" viewBox="0 0 53 53" fill="none" xmlns="http://www.w3.org/2000/svg">
<path d="M39.6532 20.8553C39.5372 23.222 37.7216 26.4572 34.2188 30.5624C30.5937 34.8551 27.5222 37 25.0119 37C23.4597 37 22.1442 35.695 21.0701 33.0765C20.3505 30.674 19.6355 28.2716 18.9174 25.8763C18.1177 23.2563 17.2616 21.947 16.346 21.947C16.1468 21.947 15.4522 22.3291 14.2543 23.0946L13 21.6194C14.3139 20.5677 15.609 19.5117 16.8869 18.4585C18.6367 17.0763 19.9522 16.3508 20.8302 16.275C22.8999 16.0918 24.1762 17.3839 24.6576 20.147C25.1703 23.1304 25.5309 24.9848 25.73 25.7117C26.329 28.1843 26.9844 29.4177 27.7025 29.4177C28.2591 29.4177 29.0964 28.6193 30.2127 27.021C31.3291 25.4198 31.9234 24.2035 32.0049 23.365C32.1648 21.9828 31.5674 21.296 30.2127 21.296C29.5746 21.296 28.9161 21.419 28.2403 21.6766C29.5573 17.786 32.066 15.8944 35.7726 16.0045C38.5181 16.0747 39.8147 17.6944 39.6532 20.8553Z" fill="#F42A3E"/>
<path fill-rule="evenodd" clip-rule="evenodd" d="M46.8735 1.51205H6.04819C3.54295 1.51205 1.51205 3.54295 1.51205 6.04819V46.8735C1.51205 49.3787 3.54295 51.4096 6.04819 51.4096H46.8735C49.3787 51.4096 51.4096 49.3787 51.4096 46.8735V6.04819C51.4096 3.54295 49.3787 1.51205 46.8735 1.51205ZM6.04819 0C2.70787 0 0 2.70787 0 6.04819V46.8735C0 50.2138 2.70787 52.9217 6.04819 52.9217H46.8735C50.2138 52.9217 52.9217 50.2138 52.9217 46.8735V6.04819C52.9217 2.70787 50.2138 0 46.8735 0H6.04819Z" fill="url(#paint0_linear_261_239)"/>
<defs>
<linearGradient id="paint0_linear_261_239" x1="2" y1="3" x2="51.5" y2="51.5" gradientUnits="userSpaceOnUse">
<stop stop-color="#F42A3E"/>
<stop offset="1" stop-color="#FF8C49"/>
</linearGradient>
</defs>
</svg>
