<svg width="61" height="61" viewBox="0 0 61 61" fill="none" xmlns="http://www.w3.org/2000/svg">
<rect width="61" height="61" rx="3" fill="#FFF1F1"/>
<path d="M36.3898 23.9376C35.2359 18.5782 32.7749 15.1876 30.4989 15.1876C28.2228 15.1876 25.7618 18.5782 24.6079 23.9376H36.3898ZM23.9364 30.5001C23.9361 31.9633 24.0336 33.4249 24.2284 34.8751H36.7693C36.9641 33.4249 37.0616 31.9633 37.0614 30.5001C37.0616 29.0369 36.9641 27.5753 36.7693 26.1251H24.2284C24.0336 27.5753 23.9361 29.0369 23.9364 30.5001ZM24.6079 37.0626C25.7618 42.422 28.2228 45.8126 30.4989 45.8126C32.7749 45.8126 35.2359 42.422 36.3898 37.0626H24.6079ZM38.6298 23.9376H45.5204C44.4851 21.5814 42.912 19.5007 40.9272 17.8622C38.9425 16.2238 36.6015 15.0732 34.0918 14.5029C36.1667 16.3284 37.7942 19.7037 38.6298 23.9376ZM46.3068 26.1251H38.9787C39.1591 27.5765 39.2494 29.0376 39.2489 30.5001C39.249 31.9627 39.1584 33.4238 38.9776 34.8751H46.3057C47.1034 32.013 47.1045 28.9873 46.3068 26.1251ZM34.0918 46.4973C36.6019 45.9273 38.9434 44.7769 40.9285 43.1385C42.9136 41.5 44.487 39.4191 45.5226 37.0626H38.632C37.7942 41.2965 36.1667 44.6718 34.0918 46.4973ZM22.3679 37.0626H15.4773C16.5128 39.4191 18.0863 41.5 20.0714 43.1385C22.0565 44.7769 24.398 45.9273 26.9081 46.4973C24.831 44.6718 23.2035 41.2965 22.3679 37.0626ZM26.9059 14.5029C24.3958 15.0729 22.0543 16.2233 20.0692 17.8618C18.0841 19.5002 16.5107 21.5812 15.4751 23.9376H22.3657C23.2035 19.7037 24.831 16.3284 26.9059 14.5029ZM21.7489 30.5001C21.7487 29.0376 21.8393 27.5764 22.0201 26.1251H14.692C13.8943 28.9873 13.8943 32.013 14.692 34.8751H22.0201C21.8393 33.4238 21.7487 31.9627 21.7489 30.5001Z" fill="url(#paint0_linear_182_8158)"/>
<defs>
<linearGradient id="paint0_linear_182_8158" x1="30.4989" y1="14.5029" x2="30.4989" y2="46.4973" gradientUnits="userSpaceOnUse">
<stop stop-color="#F42A3E"/>
<stop offset="1" stop-color="#FF8C49"/>
</linearGradient>
</defs>
</svg>
