<svg width="42" height="42" viewBox="0 0 42 42" fill="none" xmlns="http://www.w3.org/2000/svg">
<rect x="0.5" y="0.5" width="41.0039" height="41.0039" rx="15.5" fill="white" stroke="url(#paint0_linear_261_879)"/>
<path d="M25.0559 16.4829C24.2614 12.7925 22.5668 10.4578 20.9995 10.4578C19.4322 10.4578 17.7376 12.7925 16.9431 16.4829H25.0559ZM16.4806 21.0018C16.4804 22.0094 16.5476 23.0158 16.6817 24.0144H25.3173C25.4514 23.0158 25.5185 22.0094 25.5184 21.0018C25.5185 19.9943 25.4514 18.9878 25.3173 17.9892H16.6817C16.5476 18.9878 16.4804 19.9943 16.4806 21.0018ZM16.9431 25.5207C17.7376 29.2111 19.4322 31.5458 20.9995 31.5458C22.5668 31.5458 24.2614 29.2111 25.0559 25.5207H16.9431ZM26.5984 16.4829H31.3432C30.6302 14.8605 29.547 13.4277 28.1804 12.2995C26.8137 11.1713 25.2017 10.379 23.4736 9.98633C24.9023 11.2433 26.023 13.5675 26.5984 16.4829ZM31.8847 17.9892H26.8386C26.9629 18.9886 27.025 19.9947 27.0246 21.0018C27.0247 22.0089 26.9624 23.015 26.8379 24.0144H31.8839C32.4332 22.0436 32.4339 19.9601 31.8847 17.9892ZM23.4736 32.0173C25.202 31.6248 26.8143 30.8327 28.1812 29.7044C29.5481 28.5762 30.6316 27.1433 31.3447 25.5207H26.5999C26.023 28.4361 24.9023 30.7603 23.4736 32.0173ZM15.4006 25.5207H10.6558C11.3689 27.1433 12.4523 28.5762 13.8193 29.7044C15.1862 30.8327 16.7985 31.6248 18.5269 32.0173C17.0967 30.7603 15.976 28.4361 15.4006 25.5207ZM18.5254 9.98633C16.797 10.3788 15.1847 11.171 13.8178 12.2992C12.4508 13.4274 11.3674 14.8603 10.6543 16.4829H15.3991C15.976 13.5675 17.0967 11.2433 18.5254 9.98633ZM14.9743 21.0018C14.9742 19.9947 15.0366 18.9886 15.1611 17.9892H10.1151C9.56581 19.9601 9.56581 22.0436 10.1151 24.0144H15.1611C15.0366 23.015 14.9742 22.0089 14.9743 21.0018Z" fill="url(#paint1_linear_261_879)"/>
<defs>
<linearGradient id="paint0_linear_261_879" x1="4.13153" y1="3.09865" x2="36.1509" y2="39.2496" gradientUnits="userSpaceOnUse">
<stop stop-color="#F63D40"/>
<stop offset="1" stop-color="#FC7646"/>
</linearGradient>
<linearGradient id="paint1_linear_261_879" x1="20.9995" y1="9.98633" x2="20.9995" y2="32.0173" gradientUnits="userSpaceOnUse">
<stop stop-color="#F42A3E"/>
<stop offset="1" stop-color="#FF8C49"/>
</linearGradient>
</defs>
</svg>
