<svg width="53" height="53" viewBox="0 0 53 53" fill="none" xmlns="http://www.w3.org/2000/svg">
<path fill-rule="evenodd" clip-rule="evenodd" d="M38.34 19.2682C39.1392 20.0016 39.4 21.6671 39.4 21.6671C39.4 21.6671 39.6667 23.6234 39.6667 25.5789V27.4128C39.6667 29.3691 39.4 31.3246 39.4 31.3246C39.4 31.3246 39.1392 32.9901 38.34 33.7235C37.4263 34.5911 36.4132 34.6808 35.8406 34.7314C35.7776 34.737 35.7199 34.7421 35.6683 34.7477C31.9367 34.9924 26.3333 35 26.3333 35C26.3333 35 19.4 34.9426 17.2667 34.7568C17.1656 34.7397 17.0431 34.7264 16.9043 34.7113C16.2286 34.6378 15.1679 34.5225 14.3258 33.7235C13.5267 32.9901 13.2667 31.3246 13.2667 31.3246C13.2667 31.3246 13 29.3691 13 27.4128V25.5789C13 23.6234 13.2667 21.6671 13.2667 21.6671C13.2667 21.6671 13.5267 20.0016 14.3258 19.2682C15.2416 18.3993 16.2556 18.3107 16.8283 18.2606C16.8904 18.2552 16.9473 18.2502 16.9983 18.2447C20.73 18 26.3275 18 26.3275 18H26.3392C26.3392 18 31.9367 18 35.6683 18.2447C35.7194 18.2502 35.7763 18.2552 35.8384 18.2606C36.4107 18.3107 37.4252 18.3995 38.34 19.2682ZM23.5781 22.8438L23.579 29.6348L30.7831 26.251L23.5781 22.8438Z" fill="#F42A3E"/>
<path fill-rule="evenodd" clip-rule="evenodd" d="M46.8735 1.51205H6.04819C3.54295 1.51205 1.51205 3.54295 1.51205 6.04819V46.8735C1.51205 49.3787 3.54295 51.4096 6.04819 51.4096H46.8735C49.3787 51.4096 51.4096 49.3787 51.4096 46.8735V6.04819C51.4096 3.54295 49.3787 1.51205 46.8735 1.51205ZM6.04819 0C2.70787 0 0 2.70787 0 6.04819V46.8735C0 50.2138 2.70787 52.9217 6.04819 52.9217H46.8735C50.2138 52.9217 52.9217 50.2138 52.9217 46.8735V6.04819C52.9217 2.70787 50.2138 0 46.8735 0H6.04819Z" fill="url(#paint0_linear_261_243)"/>
<defs>
<linearGradient id="paint0_linear_261_243" x1="2" y1="3" x2="51.5" y2="51.5" gradientUnits="userSpaceOnUse">
<stop stop-color="#F42A3E"/>
<stop offset="1" stop-color="#FF8C49"/>
</linearGradient>
</defs>
</svg>
